<?xml version="1.0" encoding="UTF-8"?>
<svg version="1.1" xmlns="http://www.w3.org/2000/svg" width="1254" height="1254">
<path d="M0 0 C1.01927582 -0.00426498 2.03855164 -0.00852997 3.0887146 -0.01292419 C4.20105972 -0.01247101 5.31340485 -0.01201782 6.4594574 -0.0115509 C8.2233783 -0.01658882 8.2233783 -0.01658882 10.02293396 -0.02172852 C13.24388026 -0.02959801 16.46478786 -0.03290585 19.68574262 -0.0335443 C21.69791709 -0.03425544 23.71008482 -0.03639091 25.72225761 -0.03904152 C32.74126998 -0.04828749 39.76026336 -0.0523771 46.77928162 -0.05158997 C53.32426473 -0.05098849 59.8691656 -0.06155594 66.41412789 -0.07733363 C72.03374576 -0.09039846 77.65333671 -0.09577435 83.27296966 -0.09513456 C86.62931107 -0.09487937 89.9855793 -0.09774206 93.34190559 -0.10831261 C97.08168073 -0.11806553 100.82124161 -0.11525333 104.5610199 -0.10920715 C105.67538925 -0.11482666 106.78975861 -0.12044617 107.93789673 -0.12623596 C109.46258072 -0.11994423 109.46258072 -0.11994423 111.01806641 -0.11352539 C111.90240136 -0.11407016 112.78673632 -0.11461493 113.6978693 -0.1151762 C115.94554138 0.13371277 115.94554138 0.13371277 118.94554138 2.13371277 C119.31747818 4.71682739 119.31747818 4.71682739 119.31303406 8.05534363 C119.31860321 9.31732574 119.32417236 10.57930786 119.32991028 11.87953186 C119.32088694 13.28587527 119.31156913 14.69221681 119.30198669 16.09855652 C119.30277719 17.57342144 119.30487328 19.04828616 119.30818176 20.52314758 C119.31332706 24.535531 119.29975805 28.54765906 119.28265476 32.56000137 C119.26764872 36.752453 119.2687935 40.94490089 119.26799011 45.13737488 C119.26429446 52.17884191 119.24931232 59.22021164 119.22679138 66.26164246 C119.19791783 75.30789412 119.18756869 84.35406737 119.18310928 93.40036011 C119.17913245 101.16655566 119.16662956 108.93273408 119.15276241 116.69891739 C119.14865917 119.20060945 119.14573569 121.70230089 119.14296722 124.20399475 C119.13808092 128.13064283 119.12788883 132.05724314 119.11352921 135.98386765 C119.10899891 137.42787622 119.10616582 138.87189122 119.10512161 140.31590652 C119.10338113 142.2813079 119.09487612 144.24669988 119.08598328 146.21208191 C119.08300861 147.31379227 119.08003395 148.41550262 119.07696915 149.55059814 C118.94554138 152.13371277 118.94554138 152.13371277 117.94554138 154.13371277 C112.53945226 155.51664027 106.96297434 155.28554403 101.42063904 155.29142761 C100.3725708 155.29650833 99.32450256 155.30158905 98.24467468 155.30682373 C95.97267612 155.31750516 93.70066718 155.32613403 91.42865372 155.33294296 C87.81959399 155.34478151 84.21065127 155.36425032 80.60163879 155.38606262 C70.34115054 155.44748926 60.08067346 155.50154958 49.8200531 155.53507996 C43.53657935 155.55616212 37.25331821 155.59157754 30.96996689 155.63583755 C28.58846433 155.64989605 26.20692414 155.65869675 23.82538223 155.66189194 C10.07832613 155.68227691 -2.89313579 156.06410135 -16.22080994 159.72950745 C-18.05445862 160.13371277 -18.05445862 160.13371277 -22.05445862 160.13371277 C-22.38445862 160.79371277 -22.71445862 161.45371277 -23.05445862 162.13371277 C-24.94232679 163.01105028 -26.86592976 163.81234964 -28.80445862 164.57121277 C-31.97962983 165.81860146 -34.89274236 167.03663733 -37.82008362 168.79386902 C-40.05445862 170.13371277 -40.05445862 170.13371277 -42.05445862 170.13371277 C-42.05445862 170.79371277 -42.05445862 171.45371277 -42.05445862 172.13371277 C-45.02445862 173.12371277 -45.02445862 173.12371277 -48.05445862 174.13371277 C-48.05445862 174.79371277 -48.05445862 175.45371277 -48.05445862 176.13371277 C-48.71445862 176.13371277 -49.37445862 176.13371277 -50.05445862 176.13371277 C-50.38445862 176.79371277 -50.71445862 177.45371277 -51.05445862 178.13371277 C-55.64269391 182.13371277 -55.64269391 182.13371277 -58.05445862 182.13371277 C-58.05445862 182.79371277 -58.05445862 183.45371277 -58.05445862 184.13371277 C-58.71445862 184.13371277 -59.37445862 184.13371277 -60.05445862 184.13371277 C-60.05445862 184.79371277 -60.05445862 185.45371277 -60.05445862 186.13371277 C-60.71445862 186.13371277 -61.37445862 186.13371277 -62.05445862 186.13371277 C-62.31098206 186.69832214 -62.56750549 187.26293152 -62.83180237 187.84465027 C-64.19503475 190.39690004 -65.80891658 192.50149118 -67.61695862 194.75871277 C-70.07411672 197.7943728 -70.07411672 197.7943728 -72.05445862 201.13371277 C-72.71445862 201.13371277 -73.37445862 201.13371277 -74.05445862 201.13371277 C-74.32258362 202.04121277 -74.59070862 202.94871277 -74.86695862 203.88371277 C-76.05445862 207.13371277 -76.05445862 207.13371277 -77.46852112 208.88761902 C-79.5622136 211.85282389 -80.4797981 214.88121308 -81.61695862 218.32121277 C-82.37397845 220.6111388 -83.17428147 222.88824434 -84.05445862 225.13371277 C-84.71445862 225.46371277 -85.37445862 225.79371277 -86.05445862 226.13371277 C-86.43425015 228.45993588 -86.7575385 230.79546684 -87.05445862 233.13371277 C-88.04445862 237.09371277 -88.04445862 237.09371277 -89.05445862 241.13371277 C-89.71445862 249.38371277 -90.37445862 257.63371277 -91.05445862 266.13371277 C-35.94445862 266.46371277 19.16554138 266.79371277 75.94554138 267.13371277 C75.94554138 317.95371277 75.94554138 368.77371277 75.94554138 421.13371277 C17.28064754 422.2840048 17.28064754 422.2840048 -5.40992737 422.23136902 C-7.93778454 422.22948888 -10.46564208 422.22807262 -12.99349976 422.2270813 C-19.43885933 422.22338103 -25.88419393 422.21366907 -32.32954407 422.20237732 C-38.9897988 422.19188317 -45.65005726 422.18752572 -52.31031799 422.18254089 C-65.22504179 422.17202608 -78.13974884 422.15532538 -91.05445862 422.13371277 C-91.0540789 422.83567262 -91.05369918 423.53763248 -91.05330795 424.26086384 C-91.03093504 465.85489168 -91.01377466 507.44891882 -91.00339329 549.04295147 C-91.00214257 554.03601449 -91.00084825 559.0290775 -90.99952698 564.0221405 C-90.99913351 565.51319832 -90.99913351 565.51319832 -90.9987321 567.03437852 C-90.99437953 583.1345356 -90.98649425 599.2346891 -90.97730582 615.33484406 C-90.96795781 631.8522689 -90.96240057 648.36969186 -90.96037012 664.88711923 C-90.95899729 675.08111032 -90.9546596 685.27509132 -90.94654215 695.46907931 C-90.94126055 702.45730186 -90.93965756 709.4455192 -90.94095724 716.4337436 C-90.9415984 720.46692341 -90.94060812 724.50008558 -90.93525314 728.53326225 C-90.93038535 732.22646524 -90.93014222 735.91963874 -90.93355972 739.61284309 C-90.93418199 741.58006265 -90.92987053 743.54728186 -90.92537731 745.51449639 C-90.92736836 746.68840445 -90.92935941 747.86231252 -90.93141079 749.07179356 C-90.93103107 750.08071047 -90.93065135 751.08962739 -90.93026012 752.12911755 C-91.06885992 755.48210724 -91.57986933 758.81158773 -92.05445862 762.13371277 C-144.52445862 762.13371277 -196.99445862 762.13371277 -251.05445862 762.13371277 C-251.07453119 700.67458564 -251.07453119 700.67458564 -251.08010864 681.4294281 C-251.08030598 680.74941594 -251.08050331 680.06940377 -251.08070662 679.36878518 C-251.08732942 656.48498766 -251.09258106 633.60119005 -251.09680176 610.71739197 C-251.09693981 609.9707833 -251.09707787 609.22417463 -251.09722011 608.45494146 C-251.10021279 592.23041795 -251.102983 576.00589442 -251.10552395 559.78137083 C-251.10677132 551.82525043 -251.10806787 543.86913003 -251.10939026 535.91300964 C-251.10952102 535.12126605 -251.10965178 534.32952246 -251.1097865 533.51378664 C-251.11405037 507.83578558 -251.12156355 482.15778672 -251.13075584 456.479787 C-251.14018238 430.09960465 -251.14634266 403.71942352 -251.14837361 377.33923952 C-251.14866178 373.6160548 -251.14898741 369.89287008 -251.14933586 366.16968536 C-251.14940328 365.4368853 -251.14947071 364.70408524 -251.14954017 363.94907911 C-251.15072341 352.13726723 -251.15536558 340.3254591 -251.16129065 328.51364874 C-251.16716913 316.64834125 -251.16934765 304.78303783 -251.16796 292.91772893 C-251.16731702 286.48498263 -251.16832957 280.05224738 -251.17366409 273.61950302 C-251.17850658 267.73741023 -251.17879161 261.85533599 -251.17535751 255.97324237 C-251.17493266 253.83859545 -251.17622124 251.70394739 -251.1793418 249.56930271 C-251.18332123 246.68054891 -251.18121222 243.79186313 -251.17750645 240.9031105 C-251.18013346 240.06331547 -251.18276047 239.22352045 -251.18546709 238.35827708 C-251.1685924 232.5861861 -251.1685924 232.5861861 -250.54669621 230.12073343 C-249.90440909 227.52800626 -250.04570168 225.0274546 -250.08570862 222.37199402 C-250.03300681 218.59722713 -249.53929741 214.87389775 -249.05445862 211.13371277 C-248.39445862 211.13371277 -247.73445862 211.13371277 -247.05445862 211.13371277 C-247.09828674 210.17207214 -247.14211487 209.21043152 -247.18727112 208.21965027 C-247.18023785 203.54721422 -246.09855229 199.26051099 -244.92945862 194.75871277 C-244.70645081 193.88529236 -244.48344299 193.01187195 -244.25367737 192.11198425 C-242.01815994 183.59679337 -239.1724655 175.360342 -236.05445862 167.13371277 C-235.59684143 165.91297058 -235.13922424 164.69222839 -234.66773987 163.43449402 C-231.51390775 155.12845568 -228.20370518 147.10875961 -223.80445862 139.38371277 C-223.21664612 138.34198914 -223.21664612 138.34198914 -222.61695862 137.27922058 C-219.71758312 132.18413296 -216.63346985 127.23760915 -213.36695862 122.36808777 C-212.12118738 120.24731055 -211.49557474 118.53779562 -211.05445862 116.13371277 C-210.39445862 116.13371277 -209.73445862 116.13371277 -209.05445862 116.13371277 C-208.39445862 114.15371277 -207.73445862 112.17371277 -207.05445862 110.13371277 C-206.39445862 110.13371277 -205.73445862 110.13371277 -205.05445862 110.13371277 C-205.05445862 109.47371277 -205.05445862 108.81371277 -205.05445862 108.13371277 C-204.39445862 108.13371277 -203.73445862 108.13371277 -203.05445862 108.13371277 C-203.05445862 106.81371277 -203.05445862 105.49371277 -203.05445862 104.13371277 C-202.39445862 104.13371277 -201.73445862 104.13371277 -201.05445862 104.13371277 C-201.05445862 103.47371277 -201.05445862 102.81371277 -201.05445862 102.13371277 C-200.39445862 102.13371277 -199.73445862 102.13371277 -199.05445862 102.13371277 C-199.05445862 101.47371277 -199.05445862 100.81371277 -199.05445862 100.13371277 C-198.39445862 100.13371277 -197.73445862 100.13371277 -197.05445862 100.13371277 C-196.82758362 99.22621277 -196.60070862 98.31871277 -196.36695862 97.38371277 C-194.86210723 93.65741409 -193.26577967 92.4392766 -190.05445862 90.13371277 C-189.72445862 89.47371277 -189.39445862 88.81371277 -189.05445862 88.13371277 C-188.39445862 88.13371277 -187.73445862 88.13371277 -187.05445862 88.13371277 C-187.05445862 87.47371277 -187.05445862 86.81371277 -187.05445862 86.13371277 C-186.39445862 86.13371277 -185.73445862 86.13371277 -185.05445862 86.13371277 C-185.05445862 85.14371277 -185.05445862 84.15371277 -185.05445862 83.13371277 C-183.44508362 81.45011902 -183.44508362 81.45011902 -181.30445862 79.69621277 C-178.97579854 77.75429129 -176.79881863 75.87134542 -174.67945862 73.69621277 C-173.05445862 72.13371277 -173.05445862 72.13371277 -171.05445862 72.13371277 C-171.05445862 71.47371277 -171.05445862 70.81371277 -171.05445862 70.13371277 C-169.37477112 68.40715027 -169.37477112 68.40715027 -167.17945862 66.50871277 C-166.46016174 65.87707214 -165.74086487 65.24543152 -164.99977112 64.59465027 C-163.05445862 63.13371277 -163.05445862 63.13371277 -161.05445862 63.13371277 C-161.05445862 62.47371277 -161.05445862 61.81371277 -161.05445862 61.13371277 C-160.39445862 61.13371277 -159.73445862 61.13371277 -159.05445862 61.13371277 C-159.05445862 60.47371277 -159.05445862 59.81371277 -159.05445862 59.13371277 C-158.39445862 59.13371277 -157.73445862 59.13371277 -157.05445862 59.13371277 C-157.05445862 58.47371277 -157.05445862 57.81371277 -157.05445862 57.13371277 C-156.06445862 56.80371277 -155.07445862 56.47371277 -154.05445862 56.13371277 C-153.55945862 55.14371277 -153.55945862 55.14371277 -153.05445862 54.13371277 C-152.39445862 54.13371277 -151.73445862 54.13371277 -151.05445862 54.13371277 C-151.05445862 53.47371277 -151.05445862 52.81371277 -151.05445862 52.13371277 C-145.05445862 49.13371277 -145.05445862 49.13371277 -142.74195862 48.07121277 C-140.87256524 47.24049594 -140.87256524 47.24049594 -140.05445862 45.13371277 C-138.38779195 44.4670461 -136.72112528 43.80037944 -135.05445862 43.13371277 C-134.55945862 42.14371277 -134.55945862 42.14371277 -134.05445862 41.13371277 C-132.49586487 40.06340027 -132.49586487 40.06340027 -130.61695862 39.00871277 C-129.99949768 38.65550964 -129.38203674 38.30230652 -128.74586487 37.93840027 C-127.05445862 37.13371277 -127.05445862 37.13371277 -125.05445862 37.13371277 C-124.55945862 36.14371277 -124.55945862 36.14371277 -124.05445862 35.13371277 C-121.63580534 33.73328626 -119.22256043 32.41462222 -116.74195862 31.13371277 C-115.7258551 30.60004089 -115.7258551 30.60004089 -114.68922424 30.05558777 C-113.38191619 29.3706248 -112.07194105 28.69072232 -110.75904846 28.01652527 C-109.4342188 27.33039177 -108.12550306 26.6131072 -106.82398987 25.88371277 C-105.05445862 25.13371277 -105.05445862 25.13371277 -101.05445862 25.13371277 C-101.05445862 24.47371277 -101.05445862 23.81371277 -101.05445862 23.13371277 C-98.61723253 22.21631274 -96.17968328 21.29978635 -93.74195862 20.38371277 C-93.07100159 20.13105652 -92.40004456 19.87840027 -91.70875549 19.61808777 C-90.27635547 19.08009715 -88.84285594 18.5450279 -87.40846252 18.01237488 C-85.7822178 17.40535821 -84.15968631 16.78833309 -82.54029846 16.16325378 C-75.25099283 13.40526427 -67.87226203 11.41298949 -60.30445862 9.57121277 C-59.06164124 9.26675232 -57.81882385 8.96229187 -56.53834534 8.64860535 C-53.04610496 7.79991451 -49.55119336 6.96366453 -46.05445862 6.13371277 C-45.26394104 5.94357605 -44.47342346 5.75343933 -43.65895081 5.55754089 C-32.99100175 3.03078343 -22.19674655 2.18854103 -11.29005432 1.38322449 C-9.10210171 1.19917391 -9.10210171 1.19917391 -7.23063755 0.62647533 C-4.75859561 0.0667191 -2.53492278 0.00480172 0 0 Z " fill="#000000" transform="translate(919.0544586181641,192.8662872314453)"/>
<path d="M0 0 C1.29852905 -0.00137466 2.59705811 -0.00274933 3.93493652 -0.00416565 C5.38223289 -0.00062626 6.82952903 0.00300856 8.27682495 0.00672913 C9.79434202 0.00701107 11.31185923 0.00685313 12.82937622 0.00628662 C16.95723719 0.00599892 21.08506929 0.01189126 25.21292353 0.01886058 C29.52376313 0.02509864 33.83460335 0.02569828 38.14544678 0.02688599 C46.31230864 0.02999796 54.47915716 0.03820956 62.64601314 0.04823548 C73.67929831 0.06148721 84.7125871 0.0668976 95.74587822 0.07273769 C113.13494377 0.08214953 130.52399825 0.10123535 147.91305542 0.12025452 C148.60385795 57.79789732 149.02152001 115.46823872 148.93478394 173.15003967 C148.93325001 174.18079709 148.93325001 174.18079709 148.9316851 175.23237788 C148.90566518 192.52599579 148.86916908 209.81958674 148.82832729 227.11317534 C148.8012926 238.56113146 148.77724084 250.00909008 148.75575066 261.45705795 C148.75429557 262.23148024 148.75284048 263.00590253 148.7513413 263.80379216 C148.74395633 267.7412762 148.73661654 271.67876032 148.72929429 275.61624448 C148.67807427 303.11775462 148.62141678 330.61925089 148.56124878 358.1207428 C148.50311671 384.69821157 148.44751003 411.27568371 148.39523315 437.85316467 C148.39279478 439.09204631 148.39279478 439.09204631 148.39030715 440.35595586 C148.37235053 449.48098514 148.35446611 458.60601456 148.3366214 467.73104405 C148.30510389 483.84722133 148.27333019 499.9633981 148.2414093 516.07957458 C148.23986652 516.85889673 148.23832374 517.63821887 148.23673421 518.44115683 C148.19130015 541.38576648 148.14432251 564.33037251 148.09580634 587.27497584 C148.09120169 589.45342682 148.0866042 591.63187781 148.08200918 593.81032881 C148.05352182 607.31490701 148.02492007 620.81948493 147.99566535 634.32406149 C147.98529781 639.12591214 147.97508703 643.92776312 147.9649105 648.72961418 C147.96024479 650.91308635 147.95550787 653.09655837 147.95068903 655.28003021 C147.94622451 657.30389693 147.94189826 659.32776396 147.93772348 661.35163131 C147.93362218 663.24960984 147.9289481 665.14758724 147.92363918 667.04556278 C147.91244391 671.5724486 147.9155139 676.09858186 147.94548976 680.62539554 C147.94990836 681.50010824 147.95432695 682.37482095 147.95887944 683.2760401 C147.96784788 684.91314125 147.98082511 686.55022758 147.9986611 688.18725614 C148.01567987 691.75376832 147.78559201 694.63010815 146.91305542 698.12025452 C96.42305542 698.12025452 45.93305542 698.12025452 -6.08694458 698.12025452 C-6.08694458 697.13025452 -6.08694458 696.14025452 -6.08694458 695.12025452 C-6.74694458 695.12025452 -7.40694458 695.12025452 -8.08694458 695.12025452 C-8.08694458 656.51025452 -8.08694458 617.90025452 -8.08694458 578.12025452 C-7.42694458 578.12025452 -6.76694458 578.12025452 -6.08694458 578.12025452 C-6.08694458 577.46025452 -6.08694458 576.80025452 -6.08694458 576.12025452 C-6.74694458 576.12025452 -7.40694458 576.12025452 -8.08694458 576.12025452 C-8.08694458 574.47025452 -8.08694458 572.82025452 -8.08694458 571.12025452 C-7.42694458 571.12025452 -6.76694458 571.12025452 -6.08694458 571.12025452 C-6.08694458 554.29025452 -6.08694458 537.46025452 -6.08694458 520.12025452 C-6.74694458 520.12025452 -7.40694458 520.12025452 -8.08694458 520.12025452 C-8.08694458 516.16025452 -8.08694458 512.20025452 -8.08694458 508.12025452 C-7.42694458 508.12025452 -6.76694458 508.12025452 -6.08694458 508.12025452 C-6.08694458 463.24025452 -6.08694458 418.36025452 -6.08694458 372.12025452 C-6.74694458 372.12025452 -7.40694458 372.12025452 -8.08694458 372.12025452 C-8.08694458 369.48025452 -8.08694458 366.84025452 -8.08694458 364.12025452 C-7.42694458 364.12025452 -6.76694458 364.12025452 -6.08694458 364.12025452 C-6.08694458 363.13025452 -6.08694458 362.14025452 -6.08694458 361.12025452 C-6.74694458 361.12025452 -7.40694458 361.12025452 -8.08694458 361.12025452 C-8.08694458 359.14025452 -8.08694458 357.16025452 -8.08694458 355.12025452 C-7.42694458 355.12025452 -6.76694458 355.12025452 -6.08694458 355.12025452 C-6.08694458 354.46025452 -6.08694458 353.80025452 -6.08694458 353.12025452 C-6.74694458 353.12025452 -7.40694458 353.12025452 -8.08694458 353.12025452 C-8.08694458 346.52025452 -8.08694458 339.92025452 -8.08694458 333.12025452 C-7.42694458 333.12025452 -6.76694458 333.12025452 -6.08694458 333.12025452 C-6.08694458 332.46025452 -6.08694458 331.80025452 -6.08694458 331.12025452 C-6.74694458 331.12025452 -7.40694458 331.12025452 -8.08694458 331.12025452 C-8.08694458 326.83025452 -8.08694458 322.54025452 -8.08694458 318.12025452 C-7.42694458 318.12025452 -6.76694458 318.12025452 -6.08694458 318.12025452 C-6.08694458 312.84025452 -6.08694458 307.56025452 -6.08694458 302.12025452 C-6.74694458 302.12025452 -7.40694458 302.12025452 -8.08694458 302.12025452 C-8.08694458 298.16025452 -8.08694458 294.20025452 -8.08694458 290.12025452 C-7.42694458 290.12025452 -6.76694458 290.12025452 -6.08694458 290.12025452 C-6.08694458 254.81025452 -6.08694458 219.50025452 -6.08694458 183.12025452 C-6.74694458 183.12025452 -7.40694458 183.12025452 -8.08694458 183.12025452 C-8.08694458 181.47025452 -8.08694458 179.82025452 -8.08694458 178.12025452 C-7.42694458 178.12025452 -6.76694458 178.12025452 -6.08694458 178.12025452 C-6.08694458 122.35025452 -6.08694458 66.58025452 -6.08694458 9.12025452 C-6.74694458 9.12025452 -7.40694458 9.12025452 -8.08694458 9.12025452 C-8.08694458 6.48025452 -8.08694458 3.84025452 -8.08694458 1.12025452 C-5.32133786 -0.26254884 -3.09614932 -0.00251719 0 0 Z " fill="#000000" transform="translate(138.08694458007813,256.87974548339844)"/>
<path d="M0 0 C0.02336454 19.19317665 0.04099666 38.38635042 0.05181217 57.57953835 C0.05696756 66.4913442 0.06399587 75.40314122 0.07543945 84.31494141 C0.08540938 92.08282489 0.09185894 99.85070197 0.09408849 107.61859167 C0.09539167 111.73127687 0.09845272 115.84394375 0.10573006 119.95662308 C0.11252667 123.82906895 0.11460954 127.701489 0.11310768 131.57394028 C0.11338237 132.99369701 0.11536587 134.41345461 0.11920547 135.83320618 C0.12419954 137.77540458 0.12238438 139.7176169 0.12025452 141.65982056 C0.12163721 143.28862876 0.12163721 143.28862876 0.12304783 144.95034218 C-0.00170695 148.04230558 -0.42539734 150.96210444 -1 154 C-1.99 154 -2.98 154 -4 154 C-4.33 154.66 -4.66 155.32 -5 156 C-5.886875 155.814375 -6.77375 155.62875 -7.6875 155.4375 C-10.84692558 154.83832647 -10.84692558 154.83832647 -13.33105469 155.46875 C-16.29922978 156.05956129 -18.99030375 156.09629198 -22.015625 156.0625 C-23.75767212 156.04981079 -23.75767212 156.04981079 -25.53491211 156.03686523 C-26.76089111 156.02469971 -27.98687012 156.01253418 -29.25 156 C-47.73349327 155.6367327 -47.73349327 155.6367327 -66 158 C-67.68708597 158.35613371 -69.37458679 158.71030791 -71.0625 159.0625 C-72.31740234 159.32740234 -72.31740234 159.32740234 -73.59765625 159.59765625 C-76 160 -76 160 -80 160 C-80.33 160.66 -80.66 161.32 -81 162 C-82.65 162 -84.3 162 -86 162 C-86.33 162.66 -86.66 163.32 -87 164 C-89.29296875 165 -89.29296875 165 -92.1875 166 C-93.67443359 166.52207031 -93.67443359 166.52207031 -95.19140625 167.0546875 C-97.3265438 167.77332907 -99.47339967 168.45726197 -101.625 169.125 C-104.16104598 169.75152907 -104.16104598 169.75152907 -105 172 C-107.3140622 172.73075648 -109.64828869 173.40138258 -112 174 C-112 174.66 -112 175.32 -112 176 C-114.97 176.99 -114.97 176.99 -118 178 C-118 178.66 -118 179.32 -118 180 C-118.66 180 -119.32 180 -120 180 C-120.33 180.66 -120.66 181.32 -121 182 C-121.99 182 -122.98 182 -124 182 C-124 182.66 -124 183.32 -124 184 C-124.66 184 -125.32 184 -126 184 C-126.33 184.99 -126.66 185.98 -127 187 C-131.33333333 190 -131.33333333 190 -134 190 C-134 190.66 -134 191.32 -134 192 C-134.66 192 -135.32 192 -136 192 C-136 192.66 -136 193.32 -136 194 C-136.66 194 -137.32 194 -138 194 C-138 194.66 -138 195.32 -138 196 C-138.66 196 -139.32 196 -140 196 C-140.2475 196.556875 -140.495 197.11375 -140.75 197.6875 C-142.22924818 200.42410913 -143.93467439 202.67650869 -146 205 C-146.66 205 -147.32 205 -148 205 C-148.28875 205.763125 -148.5775 206.52625 -148.875 207.3125 C-150 210 -150 210 -152 213 C-152.66 213 -153.32 213 -154 213 C-154.66 215.31 -155.32 217.62 -156 220 C-156.66 220 -157.32 220 -158 220 C-158.3403125 221.2065625 -158.3403125 221.2065625 -158.6875 222.4375 C-160.06392964 226.1735233 -161.8350847 229.35158017 -163.87890625 232.75390625 C-165.08504 235.17037631 -165.58421759 237.3417956 -166 240 C-166.66 240 -167.32 240 -168 240 C-168 241.98 -168 243.96 -168 246 C-168.66 246 -169.32 246 -170 246 C-170 248.64 -170 251.28 -170 254 C-170.33 254 -170.66 254 -171 254 C-172.94210433 261.47941368 -174.39363688 268.25847464 -174 276 C-174.66 276 -175.32 276 -176 276 C-176 375 -176 474 -176 576 C-226.16 576 -276.32 576 -328 576 C-328 575.34 -328 574.68 -328 574 C-328.66 573.67 -329.32 573.34 -330 573 C-329.91800026 535.09691285 -329.82573496 497.19386369 -329.71994839 459.29083521 C-329.70743145 454.80293982 -329.69499837 450.3150442 -329.68261719 445.82714844 C-329.6789182 444.48711597 -329.6789182 444.48711597 -329.67514448 443.12001215 C-329.63556004 428.70753306 -329.60274982 414.29504626 -329.57250018 399.88254489 C-329.54124415 385.06341381 -329.50257588 370.24431503 -329.45720994 355.42522037 C-329.42950751 346.30151611 -329.40739674 337.17783513 -329.39273749 328.05410044 C-329.38208991 321.77401656 -329.36415963 315.49397809 -329.34083296 309.21392865 C-329.3276354 305.60572041 -329.31732969 301.997575 -329.31578636 298.38934135 C-329.30307732 276.28245684 -329.23052979 253.83206111 -324.5625 232.125 C-324.35818359 231.10277344 -324.15386719 230.08054687 -323.94335938 229.02734375 C-321.68918049 217.94605318 -319.25460173 206.7748819 -314.875 196.3125 C-313.83762001 193.57085288 -313.40417071 190.89655675 -313 188 C-312.34 188 -311.68 188 -311 188 C-310.86464844 187.45214844 -310.72929687 186.90429688 -310.58984375 186.33984375 C-309.03615903 180.61819043 -306.92177743 175.30566881 -304.4375 169.9375 C-303.98008423 168.93674438 -303.98008423 168.93674438 -303.51342773 167.91577148 C-301.24955036 163.12477518 -301.24955036 163.12477518 -299 162 C-298.39737901 159.7591427 -298.04392817 157.51429025 -297.66015625 155.2265625 C-296.89346737 152.64068875 -295.92069844 151.84105973 -294 150 C-293.04969568 148.30015988 -292.15596017 146.567809 -291.3125 144.8125 C-290.87550781 143.91144531 -290.43851562 143.01039063 -289.98828125 142.08203125 C-289.49908203 141.05142578 -289.49908203 141.05142578 -289 140 C-288.34 140 -287.68 140 -287 140 C-286.855625 139.38125 -286.71125 138.7625 -286.5625 138.125 C-286 136 -286 136 -285 134 C-284.34 134 -283.68 134 -283 134 C-283 133.01 -283 132.02 -283 131 C-282.34 131 -281.68 131 -281 131 C-281 129.68 -281 128.36 -281 127 C-280.34 127 -279.68 127 -279 127 C-278.34 125.35 -277.68 123.7 -277 122 C-276.34 122 -275.68 122 -275 122 C-274.855625 121.38125 -274.71125 120.7625 -274.5625 120.125 C-274 118 -274 118 -273 116 C-272.34 116 -271.68 116 -271 116 C-271 115.34 -271 114.68 -271 114 C-270.34 114 -269.68 114 -269 114 C-268.896875 113.41476562 -268.79375 112.82953125 -268.6875 112.2265625 C-267.89217247 109.65078584 -266.81181388 108.35231611 -265 106.375 C-262.72782776 103.87625688 -262.72782776 103.87625688 -261 101 C-260.34 101 -259.68 101 -259 101 C-258.34 99.35 -257.68 97.7 -257 96 C-256.34 96 -255.68 96 -255 96 C-255 95.34 -255 94.68 -255 94 C-254.34 94 -253.68 94 -253 94 C-252.505 92.515 -252.505 92.515 -252 91 C-250.5625 89.3125 -250.5625 89.3125 -249 88 C-248.34 88 -247.68 88 -247 88 C-247 87.34 -247 86.68 -247 86 C-246.34 86 -245.68 86 -245 86 C-244.505 84.515 -244.505 84.515 -244 83 C-242.12760376 80.872277 -240.39722874 79.59815249 -238 78 C-237.525625 77.154375 -237.05125 76.30875 -236.5625 75.4375 C-235 73 -235 73 -232.8125 72.1875 C-232.214375 72.125625 -231.61625 72.06375 -231 72 C-231 71.34 -231 70.68 -231 70 C-229.68 69.67 -228.36 69.34 -227 69 C-227 68.34 -227 67.68 -227 67 C-225.50390625 65.78125 -225.50390625 65.78125 -223.5625 64.5 C-220.77468153 62.7134637 -220.77468153 62.7134637 -219 60 C-218.34 60 -217.68 60 -217 60 C-217 59.34 -217 58.68 -217 58 C-215.6696875 57.38125 -215.6696875 57.38125 -214.3125 56.75 C-210.31549931 54.63837699 -207.16129912 52.00000758 -203.75 49.0625 C-200.75905202 46.81928902 -197.67721839 45.09026233 -194.37890625 43.34375 C-191.89670227 41.98500739 -191.89670227 41.98500739 -189.265625 40.140625 C-185.35960117 37.58021703 -181.32527212 35.40885599 -177.1875 33.25 C-176.36088867 32.81824463 -175.53427734 32.38648926 -174.68261719 31.94165039 C-169.07439001 29.0333046 -163.44027747 26.18203539 -157.75 23.4375 C-157.07219482 23.10331055 -156.39438965 22.76912109 -155.69604492 22.42480469 C-151.42334225 20.40198441 -147.71134624 19.44550295 -143 19 C-143 18.34 -143 17.68 -143 17 C-139.38026598 15.68373308 -136.90432869 15 -133 15 C-132.67 14.34 -132.34 13.68 -132 13 C-129.77961355 12.20368339 -127.52145154 11.51119493 -125.25 10.875 C-124.01765625 10.52179688 -122.7853125 10.16859375 -121.515625 9.8046875 C-118.50163585 9.11481887 -116.065036 8.82452084 -113 9 C-112.67 8.34 -112.34 7.68 -112 7 C-109.17114258 6.34570312 -109.17114258 6.34570312 -105.39453125 5.78125 C-104.38104866 5.62613953 -104.38104866 5.62613953 -103.34709167 5.46789551 C-101.17007092 5.13683151 -98.99141603 4.81832545 -96.8125 4.5 C-95.39375777 4.28596631 -93.9751362 4.07113113 -92.55664062 3.85546875 C-89.18324833 3.34560925 -85.80939035 2.83972871 -82.43193054 2.3573761 C-80.57108188 2.0839214 -78.71278154 1.79307329 -76.85578918 1.49455261 C-68.52663094 0.2031182 -60.39511919 -0.34581018 -51.97265625 -0.44921875 C-50.06292274 -0.48182549 -50.06292274 -0.48182549 -48.11460876 -0.51509094 C-45.44998247 -0.55864459 -42.78558413 -0.59888152 -40.12084961 -0.63305664 C-36.72285015 -0.67690708 -33.32521554 -0.73370438 -29.92748356 -0.7946043 C-26.6509632 -0.85205362 -23.37431493 -0.90040323 -20.09765625 -0.94921875 C-18.28189842 -0.98036018 -18.28189842 -0.98036018 -16.42945862 -1.01213074 C-15.29395065 -1.02577164 -14.15844269 -1.03941254 -12.98852539 -1.0534668 C-11.50298912 -1.07439644 -11.50298912 -1.07439644 -9.98744202 -1.0957489 C-6.60278484 -0.98726907 -3.34217956 -0.53105294 0 0 Z " fill="#000000" transform="translate(645,379)"/>
<path d="M0 0 C0 0.66 0 1.32 0 2 C1.32 2 2.64 2 4 2 C4 2.66 4 3.32 4 4 C5.98 4.66 7.96 5.32 10 6 C10 6.66 10 7.32 10 8 C10.5775 8.28875 11.155 8.5775 11.75 8.875 C13.83333333 9.91666667 15.91666667 10.95833333 18 12 C18 12.66 18 13.32 18 14 C18.66 14 19.32 14 20 14 C20 14.66 20 15.32 20 16 C20.66 16 21.32 16 22 16 C22 16.66 22 17.32 22 18 C22.66 18 23.32 18 24 18 C24 18.66 24 19.32 24 20 C24.66 20 25.32 20 26 20 C26 20.66 26 21.32 26 22 C26.66 22 27.32 22 28 22 C29.83984375 24.01171875 29.83984375 24.01171875 31.9375 26.6875 C32.62714844 27.55761719 33.31679687 28.42773438 34.02734375 29.32421875 C35.86366118 31.81506516 37.45751898 34.32004694 39 37 C39.41121094 37.69480469 39.82242187 38.38960937 40.24609375 39.10546875 C53.04292133 61.46844941 55.98814316 89.96881772 50 115 C48.625 118.75 48.625 118.75 47 122 C46.32117915 123.66175344 45.6554372 125.32888531 45 127 C43.39775693 131.03025756 41.72925413 135.0227155 40 139 C39.34 139 38.68 139 38 139 C38 139.99 38 140.98 38 142 C37.34 142 36.68 142 36 142 C36 142.99 36 143.98 36 145 C35.34 145 34.68 145 34 145 C34 145.99 34 146.98 34 148 C33.34 148 32.68 148 32 148 C32 148.66 32 149.32 32 150 C31.34 150 30.68 150 30 150 C30 150.66 30 151.32 30 152 C29.34 152 28.68 152 28 152 C27.34 153.65 26.68 155.3 26 157 C25.34 157 24.68 157 24 157 C24 157.66 24 158.32 24 159 C23.34 159 22.68 159 22 159 C22 159.66 22 160.32 22 161 C16.06423983 166.53104925 16.06423983 166.53104925 12 167 C12 167.66 12 168.32 12 169 C11.34 169 10.68 169 10 169 C9.67 169.66 9.34 170.32 9 171 C7.33333333 171.66666667 5.66666667 172.33333333 4 173 C3.67 173.66 3.34 174.32 3 175 C2.01 175 1.02 175 0 175 C-0.33 175.66 -0.66 176.32 -1 177 C-1.99 177 -2.98 177 -4 177 C-4.33 177.66 -4.66 178.32 -5 179 C-8.34510352 180.62734766 -10.18835834 181 -14 181 C-14.33 181.66 -14.66 182.32 -15 183 C-17.66015625 183.81640625 -17.66015625 183.81640625 -21.0625 184.5625 C-22.16722656 184.81128906 -23.27195312 185.06007813 -24.41015625 185.31640625 C-44.57503544 189.15629075 -65.60083425 187.72059551 -85 181 C-85 180.34 -85 179.68 -85 179 C-85.825 178.9175 -86.65 178.835 -87.5 178.75 C-91.76753921 177.83552731 -95.19236894 176.07776822 -99 174 C-99 173.34 -99 172.68 -99 172 C-101.65228812 170.92474806 -104.28368454 169.90543849 -107 169 C-107 168.01 -107 167.02 -107 166 C-108.32 166 -109.64 166 -111 166 C-111.99 164.02 -111.99 164.02 -113 162 C-113.66 162 -114.32 162 -115 162 C-115 161.34 -115 160.68 -115 160 C-115.66 160 -116.32 160 -117 160 C-117.66 158.68 -118.32 157.36 -119 156 C-119.66 156 -120.32 156 -121 156 C-121 155.01 -121 154.02 -121 153 C-121.66 153 -122.32 153 -123 153 C-127 148.52941176 -127 148.52941176 -127 146 C-127.66 145.67 -128.32 145.34 -129 145 C-130.33438849 142.83312139 -131.56138804 140.68306142 -132.75 138.4375 C-133.27907959 137.44278687 -133.27907959 137.44278687 -133.81884766 136.42797852 C-137.56259721 129.20039146 -140.35148499 121.68406743 -143 114 C-143.556875 112.453125 -143.556875 112.453125 -144.125 110.875 C-148.16950865 97.58590016 -146.28549694 81.61249439 -145 68 C-144.34 68 -143.68 68 -143 68 C-142.938125 66.80375 -142.87625 65.6075 -142.8125 64.375 C-142.09494625 57.57998343 -139.44051276 51.33092425 -137 45 C-136.34 45 -135.68 45 -135 45 C-134.90589844 44.46890625 -134.81179688 43.9378125 -134.71484375 43.390625 C-133.76554381 40.21591699 -132.22551277 37.61273301 -130.5625 34.75 C-129.94503906 33.67234375 -129.32757812 32.5946875 -128.69140625 31.484375 C-128.13324219 30.66453125 -127.57507813 29.8446875 -127 29 C-126.34 29 -125.68 29 -125 29 C-124.34 27.35 -123.68 25.7 -123 24 C-122.34 24 -121.68 24 -121 24 C-121 23.01 -121 22.02 -121 21 C-120.34 21 -119.68 21 -119 21 C-119 20.34 -119 19.68 -119 19 C-118.34 19 -117.68 19 -117 19 C-117 18.34 -117 17.68 -117 17 C-116.34 17 -115.68 17 -115 17 C-115 16.34 -115 15.68 -115 15 C-114.34 15 -113.68 15 -113 15 C-113 14.34 -113 13.68 -113 13 C-111.68 12.67 -110.36 12.34 -109 12 C-109 11.34 -109 10.68 -109 10 C-107.68 9.67 -106.36 9.34 -105 9 C-105 8.34 -105 7.68 -105 7 C-101.16033981 4.40182994 -97.05660487 2.24021463 -93 0 C-92.33484375 -0.38671875 -91.6696875 -0.7734375 -90.984375 -1.171875 C-62.82866881 -16.64483065 -28.19875115 -12.53277829 0 0 Z " fill="#000000" transform="translate(1093,762)"/>
<path d="" fill="#000000" transform="translate(0,0)"/>
<path d="" fill="#000000" transform="translate(0,0)"/>
<path d="" fill="#000000" transform="translate(0,0)"/>
<path d="" fill="#000000" transform="translate(0,0)"/>
</svg>
