<?xml version="1.0" encoding="UTF-8"?>
<svg version="1.1" xmlns="http://www.w3.org/2000/svg" width="1254" height="1254">
<path d="M0 0 C14.56842927 -0.04667943 29.13684697 -0.08183603 43.70533562 -0.10362434 C50.46943534 -0.11394571 57.23348865 -0.12802239 63.99755859 -0.15087891 C70.52032422 -0.17290956 77.04305966 -0.18455557 83.56586075 -0.18975449 C86.05944708 -0.19346137 88.55303066 -0.20069953 91.04659653 -0.21146011 C94.5283564 -0.22589297 98.00991444 -0.22798139 101.49169922 -0.22705078 C102.53179138 -0.23424133 103.57188354 -0.24143188 104.64349365 -0.24884033 C106.06119553 -0.24471634 106.06119553 -0.24471634 107.50753784 -0.24050903 C108.33162077 -0.24235262 109.1557037 -0.24419621 110.00475883 -0.24609566 C112 0 112 0 114 2 C114.24888897 4.42694092 114.24888897 4.42694092 114.24723816 7.54199219 C114.25143265 8.71983276 114.25562714 9.89767334 114.25994873 11.11120605 C114.25432922 12.40997681 114.24870972 13.70874756 114.24291992 15.046875 C114.24399241 16.42321869 114.2459306 17.79956194 114.24867249 19.17590332 C114.25352926 22.91964582 114.24585481 26.66326954 114.23571944 30.40699768 C114.2269522 34.31918203 114.22869613 38.23136252 114.2290802 42.14355469 C114.22814294 48.71421299 114.21945068 55.28482518 114.20581055 61.85546875 C114.19008437 69.45922888 114.18481241 77.06293849 114.1855461 84.66671371 C114.18615587 91.97203017 114.18105508 99.27733011 114.17275429 106.5826416 C114.16921782 109.69584278 114.16739052 112.80903812 114.16686058 115.92224121 C114.16585806 119.58623614 114.15976889 123.25018844 114.14969444 126.91416931 C114.14536672 128.90570641 114.14594205 130.89725226 114.14663696 132.88879395 C114.14237198 134.06663452 114.13810699 135.2444751 114.13371277 136.45800781 C114.13203692 137.48597473 114.13036108 138.51394165 114.12863445 139.57305908 C114 142 114 142 113 144 C111.07679176 144.01213028 111.07679176 144.01213028 109.11473083 144.02450562 C96.97849848 144.10229379 84.84237375 144.19011308 72.70628262 144.28752708 C66.46835451 144.33728143 60.23044165 144.38361192 53.99243164 144.421875 C47.96229398 144.45899304 41.93229077 144.50542182 35.90226936 144.55806351 C33.6120447 144.57646756 31.32179138 144.59162596 29.03152275 144.60334396 C17.87518185 144.6624203 6.93887639 144.77592362 -4.08946228 146.57705688 C-6.77825084 146.96777665 -9.28863772 147.07833981 -12 147 C-12 147.66 -12 148.32 -12 149 C-12.97839844 149.30292969 -13.95679688 149.60585938 -14.96484375 149.91796875 C-21.82020087 152.09170391 -28.20650288 154.27069226 -34.36328125 158.08203125 C-36 159 -36 159 -38 159 C-38 159.66 -38 160.32 -38 161 C-39.609375 162.21875 -39.609375 162.21875 -41.75 163.5 C-42.44609375 163.9228125 -43.1421875 164.345625 -43.859375 164.78125 C-45.87563473 165.9291935 -47.91405565 166.98521626 -50 168 C-50 168.99 -50 169.98 -50 171 C-51.65532623 172.01866229 -53.32260138 173.01810813 -55 174 C-55.33 174.99 -55.66 175.98 -56 177 C-57.59375 178.53515625 -57.59375 178.53515625 -59.5 180.0625 C-62.18106401 182.17721767 -62.18106401 182.17721767 -64 185 C-64.66 185 -65.32 185 -66 185 C-66.16822266 185.82757813 -66.16822266 185.82757813 -66.33984375 186.671875 C-67.11360773 189.40065211 -68.26817694 191.72772943 -69.5625 194.25 C-70.01753906 195.14203125 -70.47257813 196.0340625 -70.94140625 196.953125 C-71.46541016 197.96632813 -71.46541016 197.96632813 -72 199 C-72.66 199 -73.32 199 -74 199 C-74 200.65 -74 202.3 -74 204 C-74.66 204 -75.32 204 -76 204 C-75.95875 204.86625 -75.9175 205.7325 -75.875 206.625 C-76.00457721 210.12358468 -76.76019656 212.74551597 -78 216 C-78.66 216 -79.32 216 -80 216 C-79.9690625 217.6396875 -79.9690625 217.6396875 -79.9375 219.3125 C-80 223 -80 223 -81 226 C-81.08143855 227.62719482 -81.1075302 229.25751719 -81.09765625 230.88671875 C-81.09443359 231.82451172 -81.09121094 232.76230469 -81.08789062 233.72851562 C-81.07951172 234.70498047 -81.07113281 235.68144531 -81.0625 236.6875 C-81.05573242 238.16959961 -81.05573242 238.16959961 -81.04882812 239.68164062 C-81.03704303 242.12115474 -81.02059011 244.56054689 -81 247 C-80.22786195 247.00423194 -79.4557239 247.00846388 -78.66018772 247.01282406 C-59.89978912 247.11598647 -41.13942942 247.22460229 -22.37909794 247.33933926 C-13.3068631 247.394692 -4.23462433 247.4481773 4.83764648 247.49731445 C12.74211182 247.54013124 20.64654795 247.58640279 28.55096823 247.63687855 C32.73893005 247.66349975 36.926886 247.68835324 41.11488152 247.70907402 C45.05218136 247.72860891 48.98942552 247.75274304 52.9266758 247.78049088 C54.37593452 247.78987805 55.82520549 247.79754729 57.27448273 247.80341911 C59.24473458 247.81165199 61.21495548 247.82651762 63.18516541 247.84178162 C64.84301009 247.85146044 64.84301009 247.85146044 66.53434658 247.8613348 C69 248 69 248 70 249 C70.09852467 250.76928957 70.12632089 252.54254465 70.12698364 254.3145752 C70.12980347 255.4672438 70.13262329 256.61991241 70.13552856 257.80751038 C70.13249222 259.72133766 70.13249222 259.72133766 70.12939453 261.67382812 C70.13074856 263.02209012 70.1325285 264.37035175 70.13470459 265.71861267 C70.13927873 269.39000028 70.13748945 273.06135991 70.1343255 276.73274803 C70.1318018 280.56666517 70.13413947 284.40057984 70.13571167 288.23449707 C70.13753334 294.67407666 70.13512713 301.1136448 70.13037109 307.55322266 C70.12492848 315.00872163 70.12669114 322.46419326 70.1321975 329.91969156 C70.13672871 336.30948576 70.13737914 342.6992717 70.13475883 349.08906698 C70.1331961 352.91038048 70.13300217 356.7316811 70.13629532 360.55299377 C70.13917416 364.14473825 70.13719812 367.73644731 70.13140106 371.32818794 C70.12943793 373.28295467 70.13242727 375.23772437 70.13552856 377.19248962 C70.13129883 378.92149254 70.13129883 378.92149254 70.12698364 380.6854248 C70.12660662 381.6934893 70.12622959 382.7015538 70.12584114 383.74016571 C70 386 70 386 69 387 C66.64686445 387.07271741 64.29166332 387.08370868 61.9375 387.0625 C60.64714844 387.05347656 59.35679687 387.04445313 58.02734375 387.03515625 C56.52880859 387.01775391 56.52880859 387.01775391 55 387 C55 387.66 55 388.32 55 389 C10.12 389.33 -34.76 389.66 -81 390 C-81.06058594 408.17964844 -81.12117187 426.35929687 -81.18359375 445.08984375 C-81.22406261 456.56966372 -81.26477567 468.04948204 -81.30664062 479.52929688 C-81.32860809 485.55655897 -81.35051329 491.58382129 -81.37231445 497.61108398 C-81.37504964 498.36655185 -81.37778483 499.12201972 -81.3806029 499.90038055 C-81.42472751 512.1128485 -81.46533417 524.32532576 -81.50465261 536.53781002 C-81.5450517 549.06175658 -81.58920535 561.5856858 -81.63687855 574.1096068 C-81.66619985 581.84377569 -81.69255726 589.5779432 -81.71517897 597.31213463 C-81.73280889 603.23268365 -81.75565072 609.15320516 -81.78049088 615.07372856 C-81.7898827 617.50987649 -81.79755024 619.94603174 -81.80341911 622.3821907 C-81.81164423 625.69244767 -81.82591049 629.00262316 -81.84178162 632.31285095 C-81.84275972 633.29045708 -81.84373783 634.26806321 -81.84474558 635.27529377 C-81.85022002 636.1551005 -81.85569446 637.03490723 -81.8613348 637.94137478 C-81.86399284 638.70651124 -81.86665089 639.47164771 -81.86938947 640.25997013 C-82 642 -82 642 -83 643 C-84.83494486 643.09646028 -86.67364587 643.12187344 -88.51112366 643.12025452 C-89.7073082 643.12162918 -90.90349274 643.12300385 -92.13592529 643.12442017 C-93.47351099 643.12088057 -94.81109644 643.11724575 -96.14868164 643.11352539 C-97.54782611 643.11324352 -98.94697073 643.11340125 -100.34611511 643.1139679 C-104.15586459 643.11425588 -107.96558286 643.10835898 -111.77532506 643.10139394 C-115.75251309 643.09516059 -119.72970176 643.09455662 -123.70689392 643.09336853 C-131.24338539 643.09025516 -138.77986243 643.08204169 -146.31634754 643.07201904 C-154.89419828 643.06085808 -163.4720497 643.0553475 -172.0499059 643.05032361 C-189.69994546 643.03985908 -207.34997157 643.02225953 -225 643 C-225 642.34 -225 641.68 -225 641 C-225.66 641 -226.32 641 -227 641 C-227 502.73 -227 364.46 -227 222 C-226.34 222 -225.68 222 -225 222 C-225.02320313 221.11441406 -225.04640625 220.22882813 -225.0703125 219.31640625 C-225.28092285 204.8595103 -224.35841799 189.68622161 -219.6640625 175.91015625 C-219.39956299 175.12850098 -219.13506348 174.3468457 -218.86254883 173.54150391 C-218.57790771 172.70280762 -218.2932666 171.86411133 -218 171 C-217.39088582 169.17612867 -216.78284417 167.35189885 -216.17578125 165.52734375 C-214.45052083 160.3515625 -212.72526042 155.17578125 -211 150 C-210.34 150 -209.68 150 -209 150 C-208.896875 149.195625 -208.79375 148.39125 -208.6875 147.5625 C-207.84899627 143.21752614 -206.47178341 139.16542473 -205 135 C-204.34 135 -203.68 135 -203 135 C-202.7525 133.96875 -202.505 132.9375 -202.25 131.875 C-201.16084479 128.04761654 -199.27258912 125.27520197 -197 122 C-195.95950152 120.03192536 -194.98793903 118.03766015 -194.015625 116.03515625 C-192.47363268 112.94524087 -190.73970674 109.98235441 -189 107 C-188.34 107 -187.68 107 -187 107 C-186.855625 106.38125 -186.71125 105.7625 -186.5625 105.125 C-186 103 -186 103 -185 101 C-184.34 101 -183.68 101 -183 101 C-183 100.01 -183 99.02 -183 98 C-182.34 98 -181.68 98 -181 98 C-180.62875 96.88625 -180.62875 96.88625 -180.25 95.75 C-178.85475783 92.68046723 -177.44493513 91.31277647 -175 89 C-171.54862709 85.17073955 -168.20698008 81.24561051 -164.875 77.3125 C-158.0390625 69.34635417 -158.0390625 69.34635417 -154 68 C-153.71125 67.360625 -153.4225 66.72125 -153.125 66.0625 C-151.60640292 63.27840535 -149.8782279 63.15129116 -147 62 C-145.89163577 60.11683841 -145.89163577 60.11683841 -145 58 C-142.30537648 54.93370427 -139.49448659 53.06085107 -136 51 C-134.97895449 50.02149805 -133.9793879 49.02019573 -133 48 C-123.70967742 40 -123.70967742 40 -119 40 C-119 39.34 -119 38.68 -119 38 C-116.55078125 36.34375 -116.55078125 36.34375 -113.3125 34.5 C-112.25675781 33.8915625 -111.20101562 33.283125 -110.11328125 32.65625 C-103.24056604 29 -103.24056604 29 -99 29 C-99 28.34 -99 27.68 -99 27 C-93.25 24 -93.25 24 -91 24 C-90.67 23.34 -90.34 22.68 -90 22 C-88.29296875 21.1484375 -88.29296875 21.1484375 -86.1875 20.375 C-85.50042969 20.11460937 -84.81335938 19.85421875 -84.10546875 19.5859375 C-82 19 -82 19 -78 19 C-78 18.34 -78 17.68 -78 17 C-76.06441401 16.32779649 -74.12645628 15.66241923 -72.1875 15 C-71.10855469 14.62875 -70.02960938 14.2575 -68.91796875 13.875 C-66 13 -66 13 -63 13 C-62.67 12.34 -62.34 11.68 -62 11 C-59.453125 10.1484375 -59.453125 10.1484375 -56.25 9.375 C-54.67992187 8.98441406 -54.67992187 8.98441406 -53.078125 8.5859375 C-50.28706084 8.05464356 -47.82930789 7.8847319 -45 8 C-45 7.34 -45 6.68 -45 6 C-29.80162706 3.36760207 -15.43157609 1.83888146 0 2 C0 1.34 0 0.68 0 0 Z " fill="#FCFCFC" transform="translate(902,266)"/>
<path d="M0 0 C2.42973423 -0.3719368 2.42973423 -0.3719368 5.54872131 -0.36749268 C6.72800705 -0.37306183 7.90729279 -0.37863098 9.12231445 -0.3843689 C10.42265625 -0.37515411 11.72299805 -0.36593933 13.06274414 -0.35644531 C14.44071075 -0.35723583 15.81867715 -0.35933201 17.19664001 -0.36264038 C20.94450893 -0.36778462 24.69210435 -0.35421943 28.43992925 -0.33711338 C32.35524546 -0.32210743 36.27055767 -0.32325214 40.18589783 -0.32244873 C46.76077969 -0.3187535 53.33555732 -0.30377248 59.91040039 -0.28125 C68.36037791 -0.25236389 76.81027148 -0.24202623 85.26029301 -0.2375679 C92.51205565 -0.23359321 99.76379991 -0.22109092 107.01554942 -0.20722103 C109.35302295 -0.20311557 111.69049581 -0.20019325 114.02797127 -0.19742584 C117.69443205 -0.19254454 121.36084152 -0.18236103 125.02727699 -0.16798782 C127.02258101 -0.16128094 129.01789955 -0.159458 131.01321411 -0.15774536 C132.77791298 -0.14918015 132.77791298 -0.14918015 134.57826233 -0.14044189 C135.60715104 -0.13746723 136.63603975 -0.13449257 137.69610691 -0.13142776 C140 0 140 0 141 1 C141.09725914 2.38047644 141.12522945 3.7659039 141.12534916 5.14980221 C141.12785268 6.05197928 141.1303562 6.95415635 141.13293558 7.88367212 C141.13059442 8.88828819 141.12825325 9.89290427 141.12584114 10.92796326 C141.12729458 11.98911618 141.12874802 13.0502691 141.13024551 14.14357817 C141.13393399 17.74734403 141.130406 21.35106834 141.12698364 24.95483398 C141.12813434 27.5453592 141.12972151 30.13588425 141.13171089 32.72640896 C141.13533536 38.38344432 141.1352052 44.04047014 141.13266373 49.69750595 C141.12889478 58.10945537 141.13080791 66.5213967 141.13387203 74.93334606 C141.13914922 89.953552 141.13867684 104.9737537 141.13579312 119.99396005 C141.13328185 133.1380535 141.13261886 146.28214538 141.13381577 159.42623901 C141.13393034 160.73185688 141.13393034 160.73185688 141.13404724 162.06385087 C141.13435855 165.59675123 141.13467695 169.12965158 141.135007 172.66255194 C141.13806898 205.83321305 141.13528781 239.00387146 141.1299101 272.17453216 C141.12516417 301.67267133 141.12558878 331.17080618 141.13037109 360.66894531 C141.1357207 393.77725955 141.13785187 426.88557139 141.13475883 459.99388599 C141.13443809 463.52051099 141.13412525 467.04713599 141.13381577 470.57376099 C141.13373669 471.44216556 141.13365761 472.31057014 141.13357614 473.20529001 C141.13243658 486.34412588 141.1337728 499.48296002 141.13629532 512.62179565 C141.13914791 527.55474585 141.13845403 542.48769113 141.13301457 557.42064071 C141.13006771 565.78768139 141.12990178 574.15471142 141.13366075 582.52175183 C141.13615206 588.75194263 141.13347061 594.98212072 141.12868617 601.21230996 C141.12756076 603.74592831 141.12815589 606.27954808 141.13056196 608.81316555 C141.1335626 612.23281029 141.13052496 615.65239524 141.12584114 619.07203674 C141.12818231 620.07665282 141.13052347 621.08126889 141.13293558 622.11632788 C141.13043207 623.01850495 141.12792855 623.92068202 141.12534916 624.85019779 C141.1252814 625.63346473 141.12521365 626.41673166 141.12514383 627.22373396 C141 629 141 629 140 630 C138.20993074 630.10075097 136.41585522 630.13076768 134.62295532 630.13371277 C133.45634872 630.13797775 132.28974213 630.14224274 131.08778381 630.14663696 C129.79633957 630.14618378 128.50489532 630.14573059 127.17431641 630.14526367 C125.8095948 630.14825365 124.44487405 630.1516558 123.08015442 630.15544128 C119.3631841 630.16430277 115.64623678 630.16662032 111.92925692 630.16725707 C108.8302827 630.16820456 105.73131389 630.17188109 102.63234174 630.17542917 C95.32227454 630.18358219 88.01221966 630.18601266 80.70214844 630.18530273 C73.15351064 630.18470198 65.60494431 630.19525136 58.0563246 630.2110464 C51.58327161 630.22410982 45.110242 630.22948712 38.63717592 630.22884732 C34.76771116 630.22859195 30.89830985 630.23146484 27.02885818 630.24202538 C23.38947554 630.25168605 19.75021726 630.25179959 16.11083031 630.24450874 C14.13497188 630.24295952 12.15911353 630.25132415 10.18327332 630.25994873 C9.01102707 630.25575424 7.83878082 630.25155975 6.63101196 630.24723816 C5.09955756 630.24805531 5.09955756 630.24805531 3.53716469 630.24888897 C1 630 1 630 -2 628 C-2.37495883 626.10790018 -2.37495883 626.10790018 -2.37489682 623.74753672 C-2.38215115 622.84792506 -2.38940548 621.9483134 -2.39687964 621.02144077 C-2.3895703 620.02483644 -2.38226095 619.02823211 -2.37473011 618.00142765 C-2.3808212 616.41646397 -2.3808212 616.41646397 -2.38703534 614.79948083 C-2.39707444 611.21694391 -2.38550111 607.6347902 -2.3742218 604.05226135 C-2.37695918 601.47467142 -2.38100847 598.8970826 -2.38626546 596.31949657 C-2.39558857 590.69374477 -2.39367881 585.06808213 -2.38453293 579.44233131 C-2.37097014 571.0768306 -2.37448621 562.71139878 -2.38149153 554.34589315 C-2.39343989 539.40785953 -2.38831691 524.46986801 -2.37621326 509.5318367 C-2.36569254 496.45899002 -2.36113578 483.3861577 -2.36250877 470.31330681 C-2.3625928 469.44741292 -2.36267683 468.58151904 -2.36276341 467.68938595 C-2.36311564 464.17476022 -2.36349964 460.66013451 -2.36392899 457.14550879 C-2.36789751 424.14928468 -2.35515999 391.15308598 -2.33440243 358.15686914 C-2.31603347 328.8196609 -2.31021942 299.48247704 -2.31567383 270.14526367 C-2.31602026 268.26177824 -2.31636636 266.3782928 -2.31671212 264.49480737 C-2.31688311 263.56366366 -2.31705411 262.63251995 -2.31723029 261.67315977 C-2.31808378 256.986244 -2.31890757 252.29932823 -2.31969929 247.61241245 C-2.31985637 246.68782589 -2.32001345 245.76323933 -2.32017529 244.81063499 C-2.32416241 220.322596 -2.31869367 195.83455936 -2.310188 171.34652179 C-2.30928093 168.71256829 -2.30837527 166.07861479 -2.30747276 163.44466129 C-2.30687165 161.69724305 -2.30626303 159.94982482 -2.30564686 158.20240659 C-2.30141975 146.00292183 -2.30084962 133.80344168 -2.30275235 121.60395642 C-2.30519178 105.88441319 -2.30115231 90.16489468 -2.28554235 74.44535822 C-2.27747156 66.12538119 -2.27490564 57.80544533 -2.2801847 49.48546581 C-2.28349688 43.28678818 -2.27642541 37.08816452 -2.26515963 30.88949715 C-2.26221344 28.37135229 -2.26269097 25.8532008 -2.26680271 23.33505756 C-2.27185878 19.93142304 -2.26478999 16.52803085 -2.25447559 13.12441349 C-2.25887208 12.13015033 -2.26326856 11.13588716 -2.26779827 10.11149481 C-2.26253501 9.20937963 -2.25727175 8.30726445 -2.251849 7.37781245 C-2.25148974 6.59882475 -2.25113048 5.81983705 -2.25076034 5.01724366 C-2 3 -2 3 0 0 Z " fill="#FBFBFB" transform="translate(167,279)"/>
<path d="M0 0 C1.64615369 -0.02797467 3.2923122 -0.05566795 4.93847656 -0.08300781 C5.67135895 -0.10674469 6.40424133 -0.13048157 7.15933228 -0.15493774 C9.15478516 -0.17822266 9.15478516 -0.17822266 12.29003906 0.12792969 C14.53837128 3.50042802 14.54097894 4.616601 14.54400635 8.56239319 C14.549646 9.6911235 14.55528564 10.81985382 14.56109619 11.98278809 C14.5550235 13.84139465 14.5550235 13.84139465 14.54882812 15.73754883 C14.55408508 17.69385475 14.55408508 17.69385475 14.55944824 19.68968201 C14.56857408 23.26807464 14.56502746 26.84635208 14.55869007 30.42474675 C14.55363214 34.16609718 14.55832085 37.90743764 14.5614624 41.64878845 C14.5651022 47.93099746 14.56030212 54.21315946 14.55078125 60.49536133 C14.53989192 67.76459487 14.54342566 75.03371627 14.55443406 82.3029471 C14.56350091 88.53909043 14.56479532 94.77519993 14.55955672 101.01134771 C14.5564343 104.73822108 14.5560352 108.46504169 14.5626297 112.1919117 C14.56946319 116.34391076 14.5600003 120.49571547 14.54882812 124.64770508 C14.55287659 125.88880035 14.55692505 127.12989563 14.56109619 128.40859985 C14.55545654 129.53451035 14.54981689 130.66042084 14.54400635 131.82044983 C14.54287527 133.29408288 14.54287527 133.29408288 14.54172134 134.79748631 C14.29003906 137.12792969 14.29003906 137.12792969 12.29003906 139.12792969 C9.61984253 139.36843872 9.61984253 139.36843872 6.18798828 139.35498047 C4.90681122 139.35482941 3.62563416 139.35467834 2.30563354 139.35452271 C0.90199632 139.34430864 -0.50163933 139.33387664 -1.90527344 139.32324219 C-3.33730879 139.3195126 -4.76934669 139.31666537 -6.2013855 139.31466675 C-9.97274811 139.30702596 -13.74395697 139.28737377 -17.51525879 139.26525879 C-21.36269043 139.24480988 -25.21014688 139.23566708 -29.05761719 139.22558594 C-36.60846857 139.20412819 -44.15919322 139.16998701 -51.70996094 139.12792969 C-51.70996094 139.78792969 -51.70996094 140.44792969 -51.70996094 141.12792969 C-52.60134766 141.18400391 -52.60134766 141.18400391 -53.51074219 141.24121094 C-59.37675421 141.70647783 -64.72820938 142.81255404 -70.36230469 144.50683594 C-72.70996094 145.12792969 -72.70996094 145.12792969 -75.70996094 145.12792969 C-75.70996094 145.78792969 -75.70996094 146.44792969 -75.70996094 147.12792969 C-77.14550119 147.63352877 -78.58348113 148.13220459 -80.02246094 148.62792969 C-81.22322266 149.04558594 -81.22322266 149.04558594 -82.44824219 149.47167969 C-84.70996094 150.12792969 -84.70996094 150.12792969 -87.70996094 150.12792969 C-87.70996094 150.78792969 -87.70996094 151.44792969 -87.70996094 152.12792969 C-88.2784375 152.35867188 -88.84691406 152.58941406 -89.43261719 152.82714844 C-93.46576183 154.53063023 -97.11920646 156.26523492 -100.64746094 158.87792969 C-103.70996094 161.12792969 -103.70996094 161.12792969 -105.70996094 161.12792969 C-105.70996094 161.78792969 -105.70996094 162.44792969 -105.70996094 163.12792969 C-106.78246094 163.70542969 -107.85496094 164.28292969 -108.95996094 164.87792969 C-112.02490743 166.6266794 -114.33079432 168.49385236 -116.70996094 171.12792969 C-118.33496094 172.87792969 -118.33496094 172.87792969 -119.70996094 174.12792969 C-120.36996094 174.12792969 -121.02996094 174.12792969 -121.70996094 174.12792969 C-122.36996094 175.77792969 -123.02996094 177.42792969 -123.70996094 179.12792969 C-124.36996094 179.12792969 -125.02996094 179.12792969 -125.70996094 179.12792969 C-125.70996094 179.78792969 -125.70996094 180.44792969 -125.70996094 181.12792969 C-126.69996094 181.78792969 -127.68996094 182.44792969 -128.70996094 183.12792969 C-129.39264231 184.45313471 -130.06066504 185.7860515 -130.70996094 187.12792969 C-131.36996094 187.45792969 -132.02996094 187.78792969 -132.70996094 188.12792969 C-133.03996094 189.11792969 -133.36996094 190.10792969 -133.70996094 191.12792969 C-134.36996094 191.12792969 -135.02996094 191.12792969 -135.70996094 191.12792969 C-135.86464844 191.93230469 -135.86464844 191.93230469 -136.02246094 192.75292969 C-136.89088791 195.75295012 -138.2661639 198.36588318 -139.70996094 201.12792969 C-140.36996094 201.12792969 -141.02996094 201.12792969 -141.70996094 201.12792969 C-141.70996094 202.11792969 -141.70996094 203.10792969 -141.70996094 204.12792969 C-142.36996094 204.12792969 -143.02996094 204.12792969 -143.70996094 204.12792969 C-143.83113281 204.70800781 -143.95230469 205.28808594 -144.07714844 205.88574219 C-145.04731568 210.40821411 -146.14393876 214.76543935 -147.70996094 219.12792969 C-148.36996094 219.12792969 -149.02996094 219.12792969 -149.70996094 219.12792969 C-150.69996094 224.40792969 -151.68996094 229.68792969 -152.70996094 235.12792969 C-153.36996094 235.12792969 -154.02996094 235.12792969 -154.70996094 235.12792969 C-154.71419288 236.44544157 -154.71842482 237.76295345 -154.722785 239.12038994 C-154.82337687 270.36843364 -154.92907003 301.61645547 -155.04107788 332.86446022 C-155.05484809 336.70732882 -155.06857509 340.55019756 -155.08227539 344.39306641 C-155.08500369 345.15813917 -155.087732 345.92321193 -155.09054298 346.71146871 C-155.13466426 359.11290694 -155.17528193 371.51435431 -155.21461355 383.91580854 C-155.25502417 396.63299179 -155.29917961 409.35015801 -155.34683949 422.06731617 C-155.37614891 429.91971372 -155.4025083 437.77210994 -155.42513991 445.62452962 C-155.44278184 451.63735346 -155.46562417 457.65014585 -155.49045181 463.66294479 C-155.49983708 466.13576162 -155.50750701 468.60858561 -155.51338005 471.08141327 C-155.52161621 474.44386848 -155.53588579 477.80624406 -155.55174255 481.16867065 C-155.55272066 482.15892774 -155.55369877 483.14918482 -155.55470651 484.16944969 C-155.56018096 485.06518105 -155.5656554 485.96091242 -155.57129574 486.88378716 C-155.57395378 487.66069495 -155.57661182 488.43760275 -155.57935041 489.2380532 C-155.70996094 491.12792969 -155.70996094 491.12792969 -156.70996094 493.12792969 C-174.65110385 493.1746176 -192.59223102 493.20990277 -210.53342152 493.23155403 C-218.86352886 493.24187358 -227.1935985 493.25594685 -235.52368164 493.27880859 C-242.78283722 493.29872173 -250.0419655 493.31164119 -257.30114764 493.31610668 C-261.14604394 493.31871759 -264.99086211 493.32486838 -268.83573341 493.3393898 C-272.45293101 493.35294095 -276.07001812 493.35715736 -279.68723869 493.35414505 C-281.65118695 493.35495964 -283.61512311 493.36573417 -285.57904053 493.37677002 C-286.74431778 493.37402069 -287.90959503 493.37127136 -289.11018372 493.36843872 C-290.12507779 493.37028231 -291.13997187 493.37212589 -292.18562031 493.37402534 C-294.70996094 493.12792969 -294.70996094 493.12792969 -297.70996094 491.12792969 C-298.0761444 489.20599306 -298.0761444 489.20599306 -298.06348705 486.8057003 C-298.0659768 485.89255196 -298.06846655 484.97940362 -298.07103175 484.03858411 C-298.05840228 483.02887229 -298.0457728 482.01916047 -298.03276062 480.97885132 C-298.03124034 479.9113353 -298.02972006 478.84381929 -298.02815372 477.7439543 C-298.01933748 474.14306162 -297.9889287 470.54266693 -297.95874023 466.94189453 C-297.94803924 464.3702087 -297.93866047 461.79851708 -297.93051147 459.2268219 C-297.91083064 453.67791054 -297.88011058 448.12914759 -297.84195518 442.58033371 C-297.78680443 434.55763462 -297.74820511 426.53492358 -297.71368394 418.51211233 C-297.65722858 405.49660748 -297.58733211 392.48121073 -297.5090332 379.46582031 C-297.43298832 366.82034234 -297.36324246 354.17485559 -297.30200195 341.52929688 C-297.29822679 340.75021648 -297.29445162 339.97113608 -297.29056206 339.16844718 C-297.2716627 335.26014635 -297.25288753 331.35184493 -297.23417413 327.4435432 C-297.07869333 295.00489037 -296.90142018 262.56639042 -296.70996094 230.12792969 C-296.04996094 230.12792969 -295.38996094 230.12792969 -294.70996094 230.12792969 C-294.74476563 229.53109375 -294.77957031 228.93425781 -294.81542969 228.31933594 C-295.00770023 222.15752298 -294.40851695 216.3639374 -293.33496094 210.31542969 C-293.1458313 209.24047241 -293.1458313 209.24047241 -292.95288086 208.14379883 C-292.17827263 203.99145413 -291.06765612 200.13415904 -289.70996094 196.12792969 C-288.94568146 193.18234205 -288.26369424 190.2192456 -287.58496094 187.25292969 C-287.40320313 186.46917969 -287.22144531 185.68542969 -287.03417969 184.87792969 C-286.59021114 182.96185492 -286.14972813 181.04497309 -285.70996094 179.12792969 C-285.04996094 179.12792969 -284.38996094 179.12792969 -283.70996094 179.12792969 C-283.58621094 178.11730469 -283.46246094 177.10667969 -283.33496094 176.06542969 C-282.72910759 172.24855357 -281.83802182 168.81292857 -280.70996094 165.12792969 C-280.04996094 165.12792969 -279.38996094 165.12792969 -278.70996094 165.12792969 C-278.27683594 163.36449219 -278.27683594 163.36449219 -277.83496094 161.56542969 C-277.46055001 160.0861138 -277.08554365 158.6069485 -276.70996094 157.12792969 C-276.40058594 155.89042969 -276.09121094 154.65292969 -275.77246094 153.37792969 C-274.75925994 150.27872664 -273.7098893 148.62784014 -271.70996094 146.12792969 C-270.99833651 144.47995733 -270.31964141 142.81627561 -269.70996094 141.12792969 C-269.04996094 141.12792969 -268.38996094 141.12792969 -267.70996094 141.12792969 C-267.53980469 140.54785156 -267.36964844 139.96777344 -267.19433594 139.37011719 C-265.63364358 134.33937479 -263.76716436 130.46718616 -260.70996094 126.12792969 C-260.33871094 125.19980469 -259.96746094 124.27167969 -259.58496094 123.31542969 C-258.70996094 121.12792969 -258.70996094 121.12792969 -256.70996094 120.12792969 C-255.58771238 118.24779863 -255.58771238 118.24779863 -254.58496094 116.06542969 C-254.23175781 115.33195313 -253.87855469 114.59847656 -253.51464844 113.84277344 C-253.11632812 112.99392578 -253.11632812 112.99392578 -252.70996094 112.12792969 C-252.04996094 112.12792969 -251.38996094 112.12792969 -250.70996094 112.12792969 C-249.50368086 109.79578821 -248.54448714 107.6315083 -247.70996094 105.12792969 C-247.04996094 104.79792969 -246.38996094 104.46792969 -245.70996094 104.12792969 C-245.21496094 102.64292969 -245.21496094 102.64292969 -244.70996094 101.12792969 C-244.04996094 101.12792969 -243.38996094 101.12792969 -242.70996094 101.12792969 C-242.70996094 100.46792969 -242.70996094 99.80792969 -242.70996094 99.12792969 C-242.04996094 99.12792969 -241.38996094 99.12792969 -240.70996094 99.12792969 C-240.55527344 98.23074219 -240.55527344 98.23074219 -240.39746094 97.31542969 C-239.61172061 94.81534683 -238.74077241 93.75257887 -236.70996094 92.12792969 C-236.04996094 92.12792969 -235.38996094 92.12792969 -234.70996094 92.12792969 C-234.44183594 91.48855469 -234.17371094 90.84917969 -233.89746094 90.19042969 C-232.70996094 88.12792969 -232.70996094 88.12792969 -229.70996094 87.12792969 C-229.52433594 86.26167969 -229.52433594 86.26167969 -229.33496094 85.37792969 C-228.40355739 82.02487691 -226.22813997 80.4744147 -223.70996094 78.12792969 C-221.14518982 75.62571396 -218.79908862 73.2467666 -216.64746094 70.37792969 C-214.62237433 68.02621621 -213.73511563 67.4520534 -210.70996094 67.12792969 C-210.70996094 66.46792969 -210.70996094 65.80792969 -210.70996094 65.12792969 C-209.71996094 65.12792969 -208.72996094 65.12792969 -207.70996094 65.12792969 C-207.42121094 64.50917969 -207.13246094 63.89042969 -206.83496094 63.25292969 C-205.70996094 61.12792969 -205.70996094 61.12792969 -203.70996094 59.12792969 C-202.71996094 59.12792969 -201.72996094 59.12792969 -200.70996094 59.12792969 C-200.33871094 58.16886719 -200.33871094 58.16886719 -199.95996094 57.19042969 C-198.38008154 54.58362869 -197.54215783 54.83597891 -194.70996094 54.12792969 C-194.02625644 52.80325222 -193.36031908 51.46929336 -192.70996094 50.12792969 C-190.08942774 48.43726311 -188.88366372 48.12792969 -185.70996094 48.12792969 C-185.37996094 47.13792969 -185.04996094 46.14792969 -184.70996094 45.12792969 C-182.93164062 43.70166016 -182.93164062 43.70166016 -180.63183594 42.24511719 C-179.80039062 41.71789062 -178.96894531 41.19066406 -178.11230469 40.64746094 C-177.23703125 40.10476563 -176.36175781 39.56207031 -175.45996094 39.00292969 C-174.17025391 38.17728516 -174.17025391 38.17728516 -172.85449219 37.33496094 C-168.7592083 34.76673206 -165.54732374 32.86367869 -160.70996094 32.12792969 C-160.70996094 31.46792969 -160.70996094 30.80792969 -160.70996094 30.12792969 C-156.98030954 28.09357438 -155.04091052 27.12792969 -150.70996094 27.12792969 C-150.70996094 26.46792969 -150.70996094 25.80792969 -150.70996094 25.12792969 C-149.13028287 24.45264746 -147.54604191 23.78803275 -145.95996094 23.12792969 C-144.63738281 22.57105469 -144.63738281 22.57105469 -143.28808594 22.00292969 C-140.70996094 21.12792969 -140.70996094 21.12792969 -136.70996094 21.12792969 C-136.70996094 20.46792969 -136.70996094 19.80792969 -136.70996094 19.12792969 C-135.27442068 18.6223306 -133.83644074 18.12365479 -132.39746094 17.62792969 C-131.59695313 17.34949219 -130.79644531 17.07105469 -129.97167969 16.78417969 C-127.70996094 16.12792969 -127.70996094 16.12792969 -124.70996094 16.12792969 C-124.37996094 15.46792969 -124.04996094 14.80792969 -123.70996094 14.12792969 C-122.0234375 13.47363281 -122.0234375 13.47363281 -119.85058594 12.90917969 C-119.06425781 12.6990625 -118.27792969 12.48894531 -117.46777344 12.27246094 C-116.64019531 12.05976563 -115.81261719 11.84707031 -114.95996094 11.62792969 C-108.97936922 10.12283907 -108.97936922 10.12283907 -103.17871094 8.06933594 C-99.53699683 6.68064432 -95.79810239 6.1770728 -91.95996094 5.56542969 C-86.93057643 5.17039849 -86.93057643 5.17039849 -82.70996094 3.12792969 C-66.60086206 0.74299337 -50.33344044 0.70592995 -34.08496094 0.50292969 C-31.58234532 0.46460778 -29.07974088 0.42554874 -26.57714844 0.38574219 C-20.67732486 0.29440702 -14.77754368 0.22686406 -8.87731934 0.16784668 C-5.91747986 0.13054497 -2.95923613 0.06930081 0 0 Z " fill="#FDFDFD" transform="translate(633.7099609375,415.8720703125)"/>
<path d="M0 0 C1.05179443 0.00604248 2.10358887 0.01208496 3.18725586 0.01831055 C13.32280761 0.14798148 21.75093791 1.13277957 31.0625 5.25 C32.72539063 5.92289063 32.72539063 5.92289063 34.421875 6.609375 C43.99134568 10.53418095 52.75599178 14.81805816 60.0625 22.25 C60.7225 22.58 61.3825 22.91 62.0625 23.25 C62.0625 23.91 62.0625 24.57 62.0625 25.25 C62.7225 25.25 63.3825 25.25 64.0625 25.25 C67.6336885 28.15159066 68.86336322 30.85316512 70.0625 35.25 C70.7225 35.25 71.3825 35.25 72.0625 35.25 C76.0625 40.66176471 76.0625 40.66176471 76.0625 43.25 C76.7225 43.25 77.3825 43.25 78.0625 43.25 C78.0625 44.57 78.0625 45.89 78.0625 47.25 C78.7225 47.25 79.3825 47.25 80.0625 47.25 C81.31914978 50.15600261 82.0625 52.04604584 82.0625 55.25 C82.7225 55.25 83.3825 55.25 84.0625 55.25 C84.32804687 56.39597656 84.59359375 57.54195312 84.8671875 58.72265625 C85.22386742 60.25262536 85.58064337 61.78257209 85.9375 63.3125 C86.11152344 64.06466797 86.28554687 64.81683594 86.46484375 65.59179688 C87.26892927 69.03149604 88.10673662 72.39003071 89.171875 75.76171875 C90.23471446 79.92450665 90.44552726 83.72102349 90.4375 88 C90.43733887 88.81621826 90.43717773 89.63243652 90.43701172 90.47338867 C90.23397957 101.65191154 87.7772359 112.72491495 84.0625 123.25 C83.4025 123.25 82.7425 123.25 82.0625 123.25 C81.91554688 124.12011719 81.91554688 124.12011719 81.765625 125.0078125 C80.75665901 130.27879 79.37259355 133.90550221 76.0625 138.25 C75.4025 139.24 74.7425 140.23 74.0625 141.25 C73.4025 141.25 72.7425 141.25 72.0625 141.25 C72.0625 142.24 72.0625 143.23 72.0625 144.25 C71.4025 144.25 70.7425 144.25 70.0625 144.25 C70.0625 145.24 70.0625 146.23 70.0625 147.25 C69.4025 147.25 68.7425 147.25 68.0625 147.25 C68.0625 147.91 68.0625 148.57 68.0625 149.25 C66.1875 151.375 66.1875 151.375 64.0625 153.25 C63.4025 153.25 62.7425 153.25 62.0625 153.25 C62.0625 153.91 62.0625 154.57 62.0625 155.25 C60.10250556 157.01877547 58.1474728 158.6407928 56.0625 160.25 C55.0725 161.03375 54.0825 161.8175 53.0625 162.625 C32.64149806 176.91519341 6.7581691 181.25414054 -17.625 177.375 C-22.10361389 176.4931351 -26.53025669 175.43656551 -30.9375 174.25 C-30.9375 173.59 -30.9375 172.93 -30.9375 172.25 C-32.2678125 172.064375 -32.2678125 172.064375 -33.625 171.875 C-36.64137502 171.30587264 -39.14076054 170.48385564 -41.9375 169.25 C-41.9375 168.59 -41.9375 167.93 -41.9375 167.25 C-42.494375 167.12625 -43.05125 167.0025 -43.625 166.875 C-46.1796041 166.18456646 -48.53210135 165.35518316 -50.9375 164.25 C-51.2675 163.59 -51.5975 162.93 -51.9375 162.25 C-52.9275 161.92 -53.9175 161.59 -54.9375 161.25 C-54.9375 160.59 -54.9375 159.93 -54.9375 159.25 C-55.5975 159.25 -56.2575 159.25 -56.9375 159.25 C-58.62566933 157.60511706 -60.29103315 155.93662458 -61.9375 154.25 C-63.4225 153.26 -63.4225 153.26 -64.9375 152.25 C-64.9375 151.59 -64.9375 150.93 -64.9375 150.25 C-65.5975 150.25 -66.2575 150.25 -66.9375 150.25 C-67.5975 149.59 -68.2575 148.93 -68.9375 148.25 C-68.9375 147.26 -68.9375 146.27 -68.9375 145.25 C-69.5975 145.25 -70.2575 145.25 -70.9375 145.25 C-70.9375 144.59 -70.9375 143.93 -70.9375 143.25 C-71.5975 143.25 -72.2575 143.25 -72.9375 143.25 C-73.5975 141.27 -74.2575 139.29 -74.9375 137.25 C-75.5975 137.25 -76.2575 137.25 -76.9375 137.25 C-76.9375 135.93 -76.9375 134.61 -76.9375 133.25 C-77.5975 133.25 -78.2575 133.25 -78.9375 133.25 C-79.5975 130.94 -80.2575 128.63 -80.9375 126.25 C-81.5975 126.25 -82.2575 126.25 -82.9375 126.25 C-83.33582031 124.62191406 -83.33582031 124.62191406 -83.7421875 122.9609375 C-84.09883082 121.51559353 -84.4556088 120.07028278 -84.8125 118.625 C-84.98652344 117.91214844 -85.16054688 117.19929687 -85.33984375 116.46484375 C-85.51386719 115.76230469 -85.68789063 115.05976562 -85.8671875 114.3359375 C-86.02429199 113.6970459 -86.18139648 113.0581543 -86.34326172 112.39990234 C-86.94519394 110.1107751 -86.94519394 110.1107751 -87.97900391 107.39306641 C-89.68705868 101.79207377 -89.40960117 96.06708781 -89.4375 90.25 C-89.44117584 89.58847931 -89.44485168 88.92695862 -89.44863892 88.24539185 C-89.46104183 74.31355802 -87.83385456 59.13840048 -79.9375 47.25 C-78.9224911 45.25757511 -77.91876556 43.25925805 -76.9375 41.25 C-76.2775 41.25 -75.6175 41.25 -74.9375 41.25 C-74.2775 39.27 -73.6175 37.29 -72.9375 35.25 C-72.2775 35.25 -71.6175 35.25 -70.9375 35.25 C-70.9375 34.59 -70.9375 33.93 -70.9375 33.25 C-69.95996356 32.22803008 -68.9569119 31.23020375 -67.9375 30.25 C-67.2775 29.26 -66.6175 28.27 -65.9375 27.25 C-65.2775 27.25 -64.6175 27.25 -63.9375 27.25 C-63.5971875 26.321875 -63.5971875 26.321875 -63.25 25.375 C-61.54887042 22.6207902 -59.88373846 22.42849539 -56.9375 21.25 C-56.25481862 19.92479497 -55.5867959 18.59187818 -54.9375 17.25 C-52.8125 16.5 -52.8125 16.5 -50.9375 16.25 C-50.9375 15.59 -50.9375 14.93 -50.9375 14.25 C-49.4812455 13.57880451 -48.02242133 12.91318193 -46.5625 12.25 C-45.75039063 11.87875 -44.93828125 11.5075 -44.1015625 11.125 C-41.9375 10.25 -41.9375 10.25 -39.9375 10.25 C-39.9375 9.59 -39.9375 8.93 -39.9375 8.25 C-39.12925781 7.98445312 -38.32101562 7.71890625 -37.48828125 7.4453125 C-36.41964844 7.09210937 -35.35101562 6.73890625 -34.25 6.375 C-33.19425781 6.02695312 -32.13851562 5.67890625 -31.05078125 5.3203125 C-29.20114627 4.68442795 -27.36318143 4.00906923 -25.55957031 3.25244141 C-17.37897145 0.12492381 -8.65539067 -0.07981476 0 0 Z " fill="#FCFCFC" transform="translate(1029.9375,731.75)"/>
<path d="M0 0 C1.39852912 4.19558737 -0.22736864 6.04566851 -2 10 C-2.69140522 12.77888613 -2.69140522 12.77888613 -3 15 C-3.66 15 -4.32 15 -5 15 C-5.99 20.28 -6.98 25.56 -8 31 C-8.66 31 -9.32 31 -10 31 C-10.00423194 32.31751188 -10.00846388 33.63502377 -10.01282406 34.99246025 C-10.11341594 66.24050395 -10.21910909 97.48852578 -10.33111694 128.73653053 C-10.34488715 132.57939913 -10.35861415 136.42226788 -10.37231445 140.26513672 C-10.37504276 141.03020948 -10.37777106 141.79528224 -10.38058204 142.58353902 C-10.42470332 154.98497725 -10.46532099 167.38642462 -10.50465261 179.78787886 C-10.54506324 192.5050621 -10.58921867 205.22222833 -10.63687855 217.93938649 C-10.66618797 225.79178403 -10.69254736 233.64418025 -10.71517897 241.49659993 C-10.7328209 247.50942377 -10.75566324 253.52221616 -10.78049088 259.53501511 C-10.78987614 262.00783193 -10.79754607 264.48065592 -10.80341911 266.95348358 C-10.81165527 270.31593879 -10.82592486 273.67831437 -10.84178162 277.04074097 C-10.84275972 278.03099805 -10.84373783 279.02125513 -10.84474558 280.04152 C-10.85022002 280.93725136 -10.85569446 281.83298273 -10.8613348 282.75585747 C-10.86399284 283.53276526 -10.86665089 284.30967306 -10.86938947 285.11012352 C-11 287 -11 287 -12 289 C-29.94114291 289.04668792 -47.88227008 289.08197308 -65.82346058 289.10362434 C-74.15356792 289.11394389 -82.48363756 289.12801716 -90.8137207 289.15087891 C-98.07287629 289.17079204 -105.33200457 289.1837115 -112.5911867 289.18817699 C-116.436083 289.1907879 -120.28090118 289.19693869 -124.12577248 289.21146011 C-127.74297008 289.22501127 -131.36005718 289.22922767 -134.97727776 289.22621536 C-136.94122601 289.22702995 -138.90516217 289.23780448 -140.86907959 289.24884033 C-142.03435684 289.246091 -143.19963409 289.24334167 -144.40022278 289.24050903 C-145.41511685 289.24235262 -146.43001093 289.24419621 -147.47565937 289.24609566 C-150 289 -150 289 -153 287 C-153.36618346 285.0844754 -153.36618346 285.0844754 -153.35352612 282.69338799 C-153.35601587 281.78372304 -153.35850561 280.87405809 -153.36107081 279.93682754 C-153.34844134 278.93100667 -153.33581187 277.92518579 -153.32279968 276.8888855 C-153.3212794 275.82545303 -153.31975913 274.76202057 -153.31819278 273.66636288 C-153.30937663 270.07928894 -153.27896791 266.49271491 -153.2487793 262.90576172 C-153.23807829 260.343928 -153.22869952 257.78208847 -153.22055054 255.22024536 C-153.19997677 249.6926079 -153.17014986 244.16514187 -153.13199425 238.63759995 C-153.07684328 230.6456701 -153.03824408 222.65372827 -153.003723 214.66168584 C-152.94726777 201.696095 -152.87737132 188.73061268 -152.79907227 175.76513672 C-152.72302727 163.16816146 -152.65328143 150.5711774 -152.59204102 137.97412109 C-152.58637827 136.80998099 -152.58637827 136.80998099 -152.58060112 135.6223229 C-152.56170176 131.72900614 -152.54292659 127.83568879 -152.52421319 123.94237113 C-152.36873262 91.62813206 -152.1914595 59.31404662 -152 27 C-151.34 27 -150.68 27 -150 27 C-150.33 112.8 -150.66 198.6 -151 287 C-105.46 287 -59.92 287 -13 287 C-13.01160156 272.06492187 -13.02320313 257.12984375 -13.03515625 241.7421875 C-13.04027344 232.20833316 -13.04512967 222.67447983 -13.04882812 213.140625 C-13.05472955 198.05045222 -13.06161325 182.96028507 -13.07543945 167.87011719 C-13.08551032 156.87320549 -13.09188242 145.87629843 -13.09408849 134.87938225 C-13.0953749 129.07440689 -13.09832549 123.26944477 -13.10573006 117.46447372 C-13.12324993 102.97590313 -13.10344698 88.48824987 -13 74 C-12.99386358 73.07484242 -12.98772716 72.14968485 -12.98140478 71.1964922 C-12.94345944 65.92516873 -12.88171205 60.655044 -12.78485763 55.38446259 C-12.75832611 53.82765442 -12.7375726 52.27073266 -12.72370923 50.71376014 C-12.57977614 36.01731474 -10.32973749 21.40018895 -4 8 C-3.34 8 -2.68 8 -2 8 C-2.04125 7.236875 -2.0825 6.47375 -2.125 5.6875 C-2 3 -2 3 0 0 Z " fill="#D3D3D3" transform="translate(489,620)"/>
<path d="M0 0 C19.2795303 -0.02332767 38.55905774 -0.04097853 57.83859921 -0.05181217 C66.78978382 -0.05697541 75.74095968 -0.06401863 84.69213867 -0.07543945 C92.49110388 -0.08538545 100.29006276 -0.09185322 108.08903414 -0.09408849 C112.22112186 -0.09539575 116.35319144 -0.09848251 120.48527336 -0.10573006 C124.37001526 -0.11248894 128.25473146 -0.11461723 132.13947868 -0.11310768 C133.56939839 -0.11338407 134.99931891 -0.11538998 136.42923355 -0.11920547 C138.37318051 -0.12414059 140.31714109 -0.12239805 142.26109314 -0.12025452 C143.35157424 -0.12117631 144.44205534 -0.1220981 145.56558132 -0.12304783 C148 0 148 0 149 1 C149.09634459 2.77160318 149.12187481 4.54708408 149.12025452 6.32130432 C149.12231651 8.05247498 149.12231651 8.05247498 149.12442017 9.81861877 C149.12082489 11.09607468 149.11722961 12.37353058 149.11352539 13.68969727 C149.11324352 15.03958128 149.11340125 16.38946544 149.1139679 17.73934937 C149.11425587 21.41480608 149.10835916 25.09023043 149.10139394 28.7656796 C149.09516038 32.60273149 149.0945566 36.43978404 149.09336853 40.27684021 C149.09025522 47.54771218 149.08204183 54.81856919 149.07201904 62.08943456 C149.0608579 70.36499352 149.05534745 78.64055318 149.05032361 86.91611779 C149.03985922 103.94408719 149.02225978 120.97204202 149 138 C148.01 138.33 147.02 138.66 146 139 C146 93.46 146 47.92 146 1 C97.82 1 49.64 1 0 1 C0 0.67 0 0.34 0 0 Z " fill="#C5C5C5" transform="translate(823,514)"/>
<path d="M0 0 C2.60692214 2.60692214 2.25118366 3.68274666 2.25396729 7.31420898 C2.25960693 8.44156464 2.26524658 9.56892029 2.27105713 10.73043823 C2.26700867 11.97310455 2.26296021 13.21577087 2.25878906 14.49609375 C2.2622937 15.80015167 2.26579834 17.10420959 2.26940918 18.44778442 C2.27854644 22.03036825 2.27498348 25.61283722 2.26865101 29.19542313 C2.2635979 32.93944871 2.26828054 36.68346427 2.27142334 40.42749023 C2.275065 46.71567557 2.27025866 53.00381397 2.26074219 59.29199219 C2.24985723 66.56858932 2.25338267 73.8450744 2.264395 81.12166882 C2.27346219 87.36203822 2.27475595 93.60237383 2.26951766 99.84274769 C2.26639482 103.5729894 2.26599718 107.30317839 2.27259064 111.03341675 C2.27942461 115.19031443 2.26996065 119.34701801 2.25878906 123.50390625 C2.26283752 124.74657257 2.26688599 125.98923889 2.27105713 127.26956177 C2.26541748 128.39691742 2.25977783 129.52427307 2.25396729 130.68579102 C2.25321323 131.66951187 2.25245918 132.65323273 2.25168228 133.66676331 C2 136 2 136 0 138 C-2.67019653 138.24050903 -2.67019653 138.24050903 -6.10205078 138.22705078 C-7.38322784 138.22689972 -8.66440491 138.22674866 -9.98440552 138.22659302 C-11.38804274 138.21637895 -12.7916784 138.20594695 -14.1953125 138.1953125 C-15.62734785 138.19158291 -17.05938575 138.18873569 -18.49142456 138.18673706 C-22.26278717 138.17909627 -26.03399604 138.15944408 -29.80529785 138.1373291 C-33.65272949 138.11688019 -37.50018594 138.1077374 -41.34765625 138.09765625 C-48.89850764 138.0761985 -56.44923229 138.04205732 -64 138 C-64 138.66 -64 139.32 -64 140 C-65.32 139.67 -66.64 139.34 -68 139 C-67.505 138.01 -67.505 138.01 -67 137 C-44.96808212 133.32801369 -22.33582076 136 0 136 C0 91.12 0 46.24 0 0 Z " fill="#CCCCCC" transform="translate(646,417)"/>
<path d="M0 0 C1.39852912 4.19558737 -0.22736864 6.04566851 -2 10 C-2.69140522 12.77888613 -2.69140522 12.77888613 -3 15 C-3.66 15 -4.32 15 -5 15 C-5.99 20.28 -6.98 25.56 -8 31 C-8.66 31 -9.32 31 -10 31 C-10.33 115.48 -10.66 199.96 -11 287 C-11.33 287 -11.66 287 -12 287 C-12.09144198 255.33049652 -12.16213722 223.66103093 -12.20426132 191.99142609 C-12.20926356 188.24428384 -12.21444091 184.49714186 -12.21972656 180.75 C-12.2207758 180.00407728 -12.22182505 179.25815456 -12.22290608 178.48962812 C-12.24026524 166.44490881 -12.27177788 154.40026663 -12.30861118 142.35559292 C-12.3461461 129.97735498 -12.36826223 117.59915716 -12.37635398 105.22086465 C-12.38181588 97.59566159 -12.39900476 89.97067661 -12.43166587 82.34554075 C-12.45550381 76.47790749 -12.45778845 70.61038341 -12.45243073 64.74270058 C-12.4535232 62.35076247 -12.46137235 59.95881542 -12.4768219 57.56692696 C-12.58323972 40.22797394 -11.5285371 23.93807321 -4 8 C-3.34 8 -2.68 8 -2 8 C-2.061875 6.8553125 -2.061875 6.8553125 -2.125 5.6875 C-2 3 -2 3 0 0 Z " fill="#B2B2B2" transform="translate(489,620)"/>
<path d="M0 0 C2 2 2 2 2.23046875 4.34765625 C2.21628906 5.24355469 2.20210937 6.13945313 2.1875 7.0625 C2.17783203 8.41021484 2.17783203 8.41021484 2.16796875 9.78515625 C2 12 2 12 1 13 C-0.83494486 13.09646028 -2.67364587 13.12187344 -4.51112366 13.12025452 C-5.7073082 13.12162918 -6.90349274 13.12300385 -8.13592529 13.12442017 C-9.47351099 13.12088057 -10.81109644 13.11724575 -12.14868164 13.11352539 C-13.54782611 13.11324352 -14.94697073 13.11340125 -16.34611511 13.1139679 C-20.15586459 13.11425588 -23.96558286 13.10835898 -27.77532506 13.10139394 C-31.75251309 13.09516059 -35.72970176 13.09455662 -39.70689392 13.09336853 C-47.24338539 13.09025516 -54.77986243 13.08204169 -62.31634754 13.07201904 C-70.89419828 13.06085808 -79.4720497 13.0553475 -88.0499059 13.05032361 C-105.69994546 13.03985908 -123.34997157 13.02225953 -141 13 C-141 12.34 -141 11.68 -141 11 C-94.47 11 -47.94 11 0 11 C0 7.37 0 3.74 0 0 Z " fill="#DFDFDF" transform="translate(818,896)"/>
<path d="M0 0 C0.99 0.495 0.99 0.495 2 1 C1.34 1.99 0.68 2.98 0 4 C-0.66 4 -1.32 4 -2 4 C-2 4.66 -2 5.32 -2 6 C-2.66 6 -3.32 6 -4 6 C-4.27529541 6.58378418 -4.55059082 7.16756836 -4.83422852 7.76904297 C-5.95997309 9.92339981 -7.195382 11.75353984 -8.65234375 13.6953125 C-9.43762451 14.75455933 -9.43762451 14.75455933 -10.23876953 15.83520508 C-10.79935059 16.5908374 -11.35993164 17.34646973 -11.9375 18.125 C-18.50206887 27.11829556 -24.47534251 36.33435241 -30 46 C-30.45616699 46.79712402 -30.91233398 47.59424805 -31.38232422 48.41552734 C-47.10617657 76.2693659 -56.35776666 106.63478983 -62 138 C-62.33 138 -62.66 138 -63 138 C-62.4794227 129.25978113 -61.91666371 120.60563988 -59.06640625 112.26953125 C-57.76088925 108.26690219 -56.81346873 104.22645593 -55.875 100.125 C-55.69324219 99.34125 -55.51148438 98.5575 -55.32421875 97.75 C-54.88025021 95.83392523 -54.43976719 93.9170434 -54 92 C-53.34 92 -52.68 92 -52 92 C-51.87625 90.989375 -51.7525 89.97875 -51.625 88.9375 C-51.01914665 85.12062388 -50.12806088 81.68499888 -49 78 C-48.34 78 -47.68 78 -47 78 C-46.566875 76.2365625 -46.566875 76.2365625 -46.125 74.4375 C-45.75058908 72.95818411 -45.37558271 71.47901881 -45 70 C-44.690625 68.7625 -44.38125 67.525 -44.0625 66.25 C-43.049299 63.15079696 -41.99992836 61.49991045 -40 59 C-39.28837557 57.35202764 -38.60968047 55.68834592 -38 54 C-37.34 54 -36.68 54 -36 54 C-35.82984375 53.41992188 -35.6596875 52.83984375 -35.484375 52.2421875 C-33.92368264 47.21144511 -32.05720343 43.33925648 -29 39 C-28.62875 38.071875 -28.2575 37.14375 -27.875 36.1875 C-27 34 -27 34 -25 33 C-23.87775145 31.11986894 -23.87775145 31.11986894 -22.875 28.9375 C-22.52179688 28.20402344 -22.16859375 27.47054687 -21.8046875 26.71484375 C-21.53914063 26.14894531 -21.27359375 25.58304688 -21 25 C-20.34 25 -19.68 25 -19 25 C-17.79371992 22.66785852 -16.8345262 20.50357861 -16 18 C-15.34 17.67 -14.68 17.34 -14 17 C-13.505 15.515 -13.505 15.515 -13 14 C-12.34 14 -11.68 14 -11 14 C-11 13.34 -11 12.68 -11 12 C-10.34 12 -9.68 12 -9 12 C-8.896875 11.401875 -8.79375 10.80375 -8.6875 10.1875 C-7.90175967 7.68741714 -7.03081147 6.62464918 -5 5 C-4.34 5 -3.68 5 -3 5 C-2.690625 4.360625 -2.38125 3.72125 -2.0625 3.0625 C-1 1 -1 1 0 0 Z " fill="#C6C6C6" transform="translate(402,503)"/>
<path d="M0 0 C0.99 0.33 1.98 0.66 3 1 C2.67 1.66 2.34 2.32 2 3 C1.34 3 0.68 3 0 3 C0 3.66 0 4.32 0 5 C-1.95999444 6.76877547 -3.9150272 8.3907928 -6 10 C-6.99 10.78375 -7.98 11.5675 -9 12.375 C-29.42100194 26.66519341 -55.3043309 31.00414054 -79.6875 27.125 C-84.16611389 26.2431351 -88.59275669 25.18656551 -93 24 C-93 23.34 -93 22.68 -93 22 C-93.886875 21.87625 -94.77375 21.7525 -95.6875 21.625 C-98.70387502 21.05587264 -101.20326054 20.23385564 -104 19 C-104 18.67 -104 18.34 -104 18 C-100.08974084 17.64452189 -97.51000932 18.55005937 -93.96875 20.140625 C-73.69580132 28.98992799 -49.52936597 27.25149417 -29.19140625 19.7265625 C-24.06208441 17.69554403 -19.27433965 15.17787466 -14.50390625 12.41796875 C-12 11 -12 11 -9 10 C-9 9.34 -9 8.68 -9 8 C-8.34 8 -7.68 8 -7 8 C-6.814375 7.0409375 -6.814375 7.0409375 -6.625 6.0625 C-6.41875 5.381875 -6.2125 4.70125 -6 4 C-5.34 3.67 -4.68 3.34 -4 3 C-3.01 3.33 -2.02 3.66 -1 4 C-0.67 2.68 -0.34 1.36 0 0 Z " fill="#C9C9C9" transform="translate(1092,882)"/>
<path d="M0 0 C19.2795303 -0.02332767 38.55905774 -0.04097853 57.83859921 -0.05181217 C66.78978382 -0.05697541 75.74095968 -0.06401863 84.69213867 -0.07543945 C92.49110388 -0.08538545 100.29006276 -0.09185322 108.08903414 -0.09408849 C112.22112186 -0.09539575 116.35319144 -0.09848251 120.48527336 -0.10573006 C124.37001526 -0.11248894 128.25473146 -0.11461723 132.13947868 -0.11310768 C133.56939839 -0.11338407 134.99931891 -0.11538998 136.42923355 -0.11920547 C138.37318051 -0.12414059 140.31714109 -0.12239805 142.26109314 -0.12025452 C143.35157424 -0.12117631 144.44205534 -0.1220981 145.56558132 -0.12304783 C148 0 148 0 149 1 C149.07319621 3.69654854 149.09242537 6.36691458 149.0625 9.0625 C149.05798828 9.82111328 149.05347656 10.57972656 149.04882812 11.36132812 C149.0370068 13.24091871 149.01907078 15.12046899 149 17 C148.34 16.67 147.68 16.34 147 16 C146.67 11.38 146.34 6.76 146 2 C97.82 1.67 49.64 1.34 0 1 C0 0.67 0 0.34 0 0 Z " fill="#C4C4C4" transform="translate(823,514)"/>
<path d="M0 0 C0.33 0 0.66 0 1 0 C1.33 5.61 1.66 11.22 2 17 C4.67820771 18.33910386 6.74506884 18.14008245 9.74526978 18.15821838 C10.96807144 18.1680072 12.19087311 18.17779602 13.45072937 18.18788147 C14.81301841 18.19378602 16.17530786 18.19959644 17.53759766 18.20532227 C18.96644882 18.21489835 20.39529714 18.22490827 21.82414246 18.23532104 C25.71024553 18.26240545 29.59636079 18.28339583 33.48250628 18.30332303 C37.54112512 18.32516082 41.59970624 18.35256028 45.65829468 18.37937927 C53.34701396 18.42933607 61.03575414 18.4742638 68.72451437 18.51740164 C77.47653517 18.56674852 86.22851814 18.62167608 94.98050237 18.67708123 C112.98696646 18.79094712 130.99346624 18.8977761 149 19 C149 19.33 149 19.66 149 20 C129.7204697 20.02332767 110.44094226 20.04097853 91.16140079 20.05181217 C82.21021618 20.05697541 73.25904032 20.06401863 64.30786133 20.07543945 C56.50889612 20.08538545 48.70993724 20.09185322 40.91096586 20.09408849 C36.77887814 20.09539575 32.64680856 20.09848251 28.51472664 20.10573006 C24.62998474 20.11248894 20.74526854 20.11461723 16.86052132 20.11310768 C15.43060161 20.11338407 14.00068109 20.11538998 12.57076645 20.11920547 C10.62681949 20.12414059 8.68285891 20.12239805 6.73890686 20.12025452 C5.64842576 20.12117631 4.55794466 20.1220981 3.43441868 20.12304783 C1 20 1 20 0 19 C-0.08651611 17.58429877 -0.10704904 16.164405 -0.09765625 14.74609375 C-0.09443359 13.89208984 -0.09121094 13.03808594 -0.08789062 12.15820312 C-0.07951172 11.26037109 -0.07113281 10.36253906 -0.0625 9.4375 C-0.05798828 8.53580078 -0.05347656 7.63410156 -0.04882812 6.70507812 C-0.03700225 4.46998686 -0.0205222 2.23502563 0 0 Z " fill="#E8E8E8" transform="translate(819,496)"/>
<path d="M0 0 C0.66 0.33 1.32 0.66 2 1 C1.154375 1.85980469 0.30875 2.71960938 -0.5625 3.60546875 C-21.00074732 24.74359406 -28.56217004 47.17538743 -28.203125 76.33984375 C-28.09817754 80.64481693 -27.74766791 84.7612053 -27 89 C-27.66 88.67 -28.32 88.34 -29 88 C-33.93041694 70.33515672 -31.23207086 44.08153994 -22.40625 28.1171875 C-21.9421875 27.41851563 -21.478125 26.71984375 -21 26 C-19.9849911 24.00757511 -18.98126556 22.00925805 -18 20 C-17.34 20 -16.68 20 -16 20 C-15.34 18.02 -14.68 16.04 -14 14 C-13.34 14 -12.68 14 -12 14 C-12 13.34 -12 12.68 -12 12 C-11.02246356 10.97803008 -10.0194119 9.98020375 -9 9 C-8.34 8.01 -7.68 7.02 -7 6 C-6.34 6 -5.68 6 -5 6 C-4.731875 5.38125 -4.46375 4.7625 -4.1875 4.125 C-3 2 -3 2 0 0 Z " fill="#D5D5D5" transform="translate(971,753)"/>
<path d="M0 0 C1.39852912 4.19558737 -0.22736864 6.04566851 -2 10 C-2.69140522 12.77888613 -2.69140522 12.77888613 -3 15 C-3.66 15 -4.32 15 -5 15 C-5.99 20.28 -6.98 25.56 -8 31 C-8.66 31 -9.32 31 -10 31 C-10.33 56.08 -10.66 81.16 -11 107 C-11.33 107 -11.66 107 -12 107 C-12.0935409 98.05369335 -12.16418423 89.10756037 -12.20724869 80.16086769 C-12.22793922 76.00452775 -12.25590773 71.8485274 -12.30175781 67.69238281 C-12.74404881 26.51133737 -12.74404881 26.51133737 -4 8 C-3.34 8 -2.68 8 -2 8 C-2.061875 6.8553125 -2.061875 6.8553125 -2.125 5.6875 C-2 3 -2 3 0 0 Z " fill="#AEAEAE" transform="translate(489,620)"/>
<path d="M0 0 C0.66 0.33 1.32 0.66 2 1 C1.32904297 1.76183594 1.32904297 1.76183594 0.64453125 2.5390625 C-0.26232422 3.57160156 -0.26232422 3.57160156 -1.1875 4.625 C-2.14269531 5.71167969 -2.14269531 5.71167969 -3.1171875 6.8203125 C-4.7265641 8.68344972 -6.2760031 10.57707873 -7.8125 12.5 C-8.534375 13.325 -9.25625 14.15 -10 15 C-10.66 15 -11.32 15 -12 15 C-12.433125 15.8971875 -12.433125 15.8971875 -12.875 16.8125 C-14 19 -14 19 -16 22 C-16.66 22 -17.32 22 -18 22 C-18.99 24.475 -18.99 24.475 -20 27 C-20.66 27 -21.32 27 -22 27 C-22.309375 27.78375 -22.61875 28.5675 -22.9375 29.375 C-24 32 -24 32 -25 34 C-25.66 34 -26.32 34 -27 34 C-27.28101563 34.57105469 -27.56203125 35.14210938 -27.8515625 35.73046875 C-30.99562276 41.94373069 -34.53210136 47.96328756 -38 54 C-38.66 54 -39.32 54 -40 54 C-39.41512359 49.99251347 -38.15605425 47.14263232 -36.0625 43.6875 C-35.53785156 42.80449219 -35.01320313 41.92148437 -34.47265625 41.01171875 C-33.98667969 40.34785156 -33.50070312 39.68398438 -33 39 C-32.34 39 -31.68 39 -31 39 C-30.855625 38.38125 -30.71125 37.7625 -30.5625 37.125 C-30 35 -30 35 -29 33 C-28.34 33 -27.68 33 -27 33 C-27 32.01 -27 31.02 -27 30 C-26.34 30 -25.68 30 -25 30 C-24.7525 29.2575 -24.505 28.515 -24.25 27.75 C-22.85475783 24.68046723 -21.44493513 23.31277647 -19 21 C-15.54862709 17.17073955 -12.20698008 13.24561051 -8.875 9.3125 C-6.38010013 6.38952079 -3.75605294 3.67730857 -1 1 C-0.67 0.67 -0.34 0.34 0 0 Z " fill="#D5D5D5" transform="translate(746,334)"/>
<path d="M0 0 C0.66 0.66 1.32 1.32 2 2 C0.35 2 -1.3 2 -3 2 C-3 2.66 -3 3.32 -3 4 C-3.97839844 4.30292969 -4.95679688 4.60585938 -5.96484375 4.91796875 C-12.82020087 7.09170391 -19.20650288 9.27069226 -25.36328125 13.08203125 C-27 14 -27 14 -29 14 C-29 14.66 -29 15.32 -29 16 C-30.609375 17.21875 -30.609375 17.21875 -32.75 18.5 C-33.79414062 19.13421875 -33.79414062 19.13421875 -34.859375 19.78125 C-36.87563473 20.9291935 -38.91405565 21.98521626 -41 23 C-41 23.99 -41 24.98 -41 26 C-42.65532623 27.01866229 -44.32260138 28.01810813 -46 29 C-46.33 29.99 -46.66 30.98 -47 32 C-48.62890625 33.38671875 -48.62890625 33.38671875 -50.5625 34.6875 C-51.20316406 35.12449219 -51.84382812 35.56148438 -52.50390625 36.01171875 C-53.24447266 36.50091797 -53.24447266 36.50091797 -54 37 C-52.94692391 30.7923936 -47.71228254 26.52202893 -43.1875 22.5 C-41 21 -41 21 -39 21 C-39 20.34 -39 19.68 -39 19 C-35.24100622 15.48352195 -31.28776943 12.33048559 -26 12 C-26 11.34 -26 10.68 -26 10 C-24.02 9.67 -22.04 9.34 -20 9 C-20 8.34 -20 7.68 -20 7 C-17.79513181 6.01233987 -15.58662689 5.03481484 -13.375 4.0625 C-12.75753906 3.78470703 -12.14007812 3.50691406 -11.50390625 3.22070312 C-7.69038243 1.55479535 -4.16831373 0.28725916 0 0 Z " fill="#D7D7D7" transform="translate(893,411)"/>
<path d="M0 0 C-1.03898438 0.43570312 -2.07796875 0.87140625 -3.1484375 1.3203125 C-10.29745775 4.35780904 -17.179488 7.43873739 -23.765625 11.59375 C-26.7404923 13.46604411 -29.80887468 15.14362549 -32.890625 16.83203125 C-34.92699033 17.95957428 -36.93183151 19.1314762 -38.9375 20.3125 C-42 22 -42 22 -44 22 C-44 22.66 -44 23.32 -44 24 C-49.41176471 28 -49.41176471 28 -52 28 C-52 28.66 -52 29.32 -52 30 C-53.96147874 31.38938077 -55.96166576 32.7260411 -58 34 C-58.66 33.67 -59.32 33.34 -60 33 C-54.77645795 27.62721389 -49.60791924 23.4909762 -43 20 C-42.34 20 -41.68 20 -41 20 C-41 19.34 -41 18.68 -41 18 C-38.55078125 16.34375 -38.55078125 16.34375 -35.3125 14.5 C-34.25675781 13.8915625 -33.20101562 13.283125 -32.11328125 12.65625 C-25.24056604 9 -25.24056604 9 -21 9 C-21 8.34 -21 7.68 -21 7 C-15.25 4 -15.25 4 -13 4 C-12.67 3.34 -12.34 2.68 -12 2 C-10.29296875 1.11328125 -10.29296875 1.11328125 -8.1875 0.3125 C-7.50042969 0.04050781 -6.81335938 -0.23148437 -6.10546875 -0.51171875 C-3.70623504 -1.06812731 -2.3105636 -0.77364938 0 0 Z " fill="#D3D3D3" transform="translate(824,286)"/>
<path d="M0 0 C-2.35575907 2.35575907 -3.15178504 2.34780426 -6.375 2.7109375 C-7.26864258 2.81897705 -8.16228516 2.9270166 -9.08300781 3.03833008 C-10.52691895 3.20498169 -10.52691895 3.20498169 -12 3.375 C-28.68974084 5.49581829 -47.15935035 8.29087164 -62.2578125 16.1796875 C-64 17 -64 17 -68 17 C-68 16.34 -68 15.68 -68 15 C-66.06441401 14.32779649 -64.12645628 13.66241923 -62.1875 13 C-61.10855469 12.62875 -60.02960937 12.2575 -58.91796875 11.875 C-56 11 -56 11 -53 11 C-52.67 10.34 -52.34 9.68 -52 9 C-49.453125 8.1484375 -49.453125 8.1484375 -46.25 7.375 C-45.20328125 7.11460937 -44.1565625 6.85421875 -43.078125 6.5859375 C-40.28706084 6.05464356 -37.82930789 5.8847319 -35 6 C-35 5.34 -35 4.68 -35 4 C-10.57798834 -0.22995627 -10.57798834 -0.22995627 0 0 Z " fill="#D8D8D8" transform="translate(892,268)"/>
<path d="M0 0 C1.05179443 0.00604248 2.10358887 0.01208496 3.18725586 0.01831055 C13.14879959 0.14575528 21.98405247 0.87889563 31.0625 5.25 C32.87067405 5.98982897 34.68344332 6.71849924 36.5 7.4375 C37.36496094 7.78167969 38.22992187 8.12585938 39.12109375 8.48046875 C39.76175781 8.73441406 40.40242188 8.98835937 41.0625 9.25 C40.4025 9.91 39.7425 10.57 39.0625 11.25 C38.18851563 10.88648438 38.18851563 10.88648438 37.296875 10.515625 C34.56296966 9.39799074 31.81357687 8.32467374 29.0625 7.25 C27.75708252 6.71463623 27.75708252 6.71463623 26.42529297 6.16845703 C18.69790838 3.25368152 11.68657074 2.68488919 3.46191406 2.83837891 C1.43243223 2.87509167 -0.59521872 2.87939512 -2.625 2.87890625 C-9.26056781 2.93757041 -15.46353807 3.24410623 -21.89990234 4.92333984 C-24.20357547 5.29265624 -25.73410785 4.95878783 -27.9375 4.25 C-18.9429093 0.4160092 -9.6723823 -0.08919284 0 0 Z " fill="#D2D2D2" transform="translate(1029.9375,731.75)"/>
<path d="M0 0 C0.66 0.33 1.32 0.66 2 1 C1.34 1.99 0.68 2.98 0 4 C-0.66 4 -1.32 4 -2 4 C-2 4.66 -2 5.32 -2 6 C-2.66 6 -3.32 6 -4 6 C-4.27529541 6.58378418 -4.55059082 7.16756836 -4.83422852 7.76904297 C-5.95997309 9.92339981 -7.195382 11.75353984 -8.65234375 13.6953125 C-9.17650879 14.40276611 -9.70067383 15.11021973 -10.24072266 15.83911133 C-10.80065918 16.59345459 -11.3605957 17.34779785 -11.9375 18.125 C-19.18442136 28.00707324 -25.71053563 38.30889063 -31.6796875 49.01171875 C-32.11539062 49.66785156 -32.55109375 50.32398438 -33 51 C-33.66 51 -34.32 51 -35 51 C-33.67315297 46.35603538 -31.70607148 42.97454248 -29 39 C-28.62875 38.071875 -28.2575 37.14375 -27.875 36.1875 C-27 34 -27 34 -25 33 C-23.87775145 31.11986894 -23.87775145 31.11986894 -22.875 28.9375 C-22.52179688 28.20402344 -22.16859375 27.47054687 -21.8046875 26.71484375 C-21.53914063 26.14894531 -21.27359375 25.58304688 -21 25 C-20.34 25 -19.68 25 -19 25 C-17.79371992 22.66785852 -16.8345262 20.50357861 -16 18 C-15.34 17.67 -14.68 17.34 -14 17 C-13.67 16.01 -13.34 15.02 -13 14 C-12.34 14 -11.68 14 -11 14 C-11 13.34 -11 12.68 -11 12 C-10.34 12 -9.68 12 -9 12 C-8.896875 11.401875 -8.79375 10.80375 -8.6875 10.1875 C-7.90175967 7.68741714 -7.03081147 6.62464918 -5 5 C-4.34 5 -3.68 5 -3 5 C-2.690625 4.360625 -2.38125 3.72125 -2.0625 3.0625 C-1 1 -1 1 0 0 Z " fill="#C9C9C9" transform="translate(402,503)"/>
<path d="M0 0 C-0.67466309 0.33209473 -1.34932617 0.66418945 -2.04443359 1.00634766 C-5.15681192 2.54150364 -8.26590353 4.0832089 -11.375 5.625 C-12.43589844 6.14707031 -13.49679687 6.66914063 -14.58984375 7.20703125 C-20.53038605 10.15907988 -26.26463625 13.25583503 -31.86572266 16.81396484 C-33.93136336 17.96185806 -35.69111111 18.55263231 -38 19 C-38 19.66 -38 20.32 -38 21 C-39.98 21.66 -41.96 22.32 -44 23 C-44 23.66 -44 24.32 -44 25 C-45.32 25.33 -46.64 25.66 -48 26 C-46.81697542 22.45092626 -45.99936934 22.06626725 -42.921875 20.1171875 C-42.09042969 19.58996094 -41.25898438 19.06273437 -40.40234375 18.51953125 C-39.52707031 17.97683594 -38.65179688 17.43414062 -37.75 16.875 C-36.89019531 16.32457031 -36.03039062 15.77414062 -35.14453125 15.20703125 C-31.04924737 12.63880237 -27.8373628 10.735749 -23 10 C-23 9.34 -23 8.68 -23 8 C-19.27034861 5.96564469 -17.33094958 5 -13 5 C-13 4.34 -13 3.68 -13 3 C-11.40084119 2.30093058 -9.79544955 1.61610532 -8.1875 0.9375 C-7.29417969 0.55464844 -6.40085937 0.17179687 -5.48046875 -0.22265625 C-3 -1 -3 -1 0 0 Z " fill="#D4D4D4" transform="translate(496,438)"/>
<path d="M0 0 C0.33 0 0.66 0 1 0 C1.64206802 14.9280814 0.00140568 28.85187942 -5 43 C-5.66 43 -6.32 43 -7 43 C-7.12117188 43.63808594 -7.24234375 44.27617188 -7.3671875 44.93359375 C-7.53476563 45.75988281 -7.70234375 46.58617187 -7.875 47.4375 C-8.03742188 48.26121094 -8.19984375 49.08492187 -8.3671875 49.93359375 C-8.57601563 50.61550781 -8.78484375 51.29742188 -9 52 C-9.99 52.495 -9.99 52.495 -11 53 C-10.17482529 48.40725128 -9.24076147 44.2728772 -7.0625 40.125 C-2.21606151 29.81727635 -1.81907491 16.70481264 -1.2109375 5.46875 C-1 3 -1 3 0 0 Z " fill="#C9C9C9" transform="translate(1119,812)"/>
<path d="M0 0 C3.91025916 -0.35547811 6.48999068 0.55005937 10.03125 2.140625 C24.14983228 8.30349822 40.81645782 8.45248967 56 8 C56 8.33 56 8.66 56 9 C50.9203528 10.02082942 46.0331551 10.19263914 40.875 10.1875 C39.61465942 10.1862915 39.61465942 10.1862915 38.32885742 10.18505859 C28.90685499 10.09281901 20.07596902 8.44353012 11 6 C11 5.34 11 4.68 11 4 C10.113125 3.87625 9.22625 3.7525 8.3125 3.625 C5.29612498 3.05587264 2.79673946 2.23385564 0 1 C0 0.67 0 0.34 0 0 Z " fill="#D3D4D3" transform="translate(988,900)"/>
<path d="M0 0 C0.33 0 0.66 0 1 0 C1.06058594 0.99902344 1.12117187 1.99804688 1.18359375 3.02734375 C1.26738281 4.31769531 1.35117187 5.60804688 1.4375 6.9375 C1.51871094 8.22527344 1.59992187 9.51304687 1.68359375 10.83984375 C1.64919188 13.86023957 1.64919188 13.86023957 3 15 C3.28060716 19.13895558 3.23179994 23.29016223 3.25 27.4375 C3.2809375 29.19416992 3.2809375 29.19416992 3.3125 30.98632812 C3.31765625 32.10330078 3.3228125 33.22027344 3.328125 34.37109375 C3.3374707 35.40161865 3.34681641 36.43214355 3.35644531 37.49389648 C3.23881836 38.32091064 3.12119141 39.1479248 3 40 C2.01 40.66 1.02 41.32 0 42 C0 28.14 0 14.28 0 0 Z " fill="#CBCBCB" transform="translate(969,516)"/>
<path d="M0 0 C0 0.99 0 1.98 0 3 C-21.12 3 -42.24 3 -64 3 C-64 3.66 -64 4.32 -64 5 C-65.32 4.67 -66.64 4.34 -68 4 C-67.67 3.34 -67.34 2.68 -67 2 C-62.90356303 1.0607679 -58.91035809 0.85554462 -54.71923828 0.79467773 C-53.4984256 0.77473251 -52.27761292 0.75478729 -51.01980591 0.73423767 C-49.71647308 0.71752518 -48.41314026 0.70081268 -47.0703125 0.68359375 C-45.71124681 0.66299757 -44.35218714 0.64200045 -42.99313354 0.62062073 C-39.43238226 0.56567487 -35.87157583 0.51614553 -32.31072998 0.46777344 C-28.67064562 0.41735647 -25.03064041 0.36177629 -21.390625 0.30664062 C-14.26048546 0.19939577 -7.13027478 0.09787739 0 0 Z " fill="#E2E2E2" transform="translate(646,552)"/>
<path d="M0 0 C0.33 0 0.66 0 1 0 C0.39700836 7.23589973 -1.1150587 13.99370876 -3 21 C-3.66 21 -4.32 21 -5 21 C-5.0501123 21.59538574 -5.10022461 22.19077148 -5.15185547 22.80419922 C-5.38360757 25.4953614 -5.62912852 28.18509264 -5.875 30.875 C-5.95363281 31.81214844 -6.03226563 32.74929688 -6.11328125 33.71484375 C-6.23896484 35.05869141 -6.23896484 35.05869141 -6.3671875 36.4296875 C-6.44050293 37.25710449 -6.51381836 38.08452148 -6.58935547 38.93701172 C-7 41 -7 41 -9 43 C-9.76606827 31.19687411 -7.24575081 18.99540596 -3 8 C-2.71769531 7.23558594 -2.43539062 6.47117187 -2.14453125 5.68359375 C-1.44114427 3.78477912 -0.72228766 1.89170578 0 0 Z " fill="#D1D1D1" transform="translate(687,429)"/>
<path d="M0 0 C1.11310547 0.00451172 2.22621094 0.00902344 3.37304688 0.01367188 C6.10292101 0.02538807 8.83268174 0.04179301 11.5625 0.0625 C12.0575 1.0525 12.0575 1.0525 12.5625 2.0625 C11.99966309 2.08755615 11.43682617 2.1126123 10.85693359 2.13842773 C-0.25407646 2.63770993 -11.34875223 3.18658211 -22.4375 4.0625 C-20.64355877 1.63540304 -19.50063077 1.07732938 -16.52734375 0.37890625 C-11.04258904 -0.19684148 -5.50679764 -0.04248568 0 0 Z " fill="#C6C6C6" transform="translate(918.4375,407.9375)"/>
<path d="M0 0 C1.39852912 4.19558737 -0.22736864 6.04566851 -2 10 C-2.69140522 12.77888613 -2.69140522 12.77888613 -3 15 C-3.66 15 -4.32 15 -5 15 C-5.99 20.28 -6.98 25.56 -8 31 C-8.66 31 -9.32 31 -10 31 C-9.938125 32.670625 -9.938125 32.670625 -9.875 34.375 C-10 38 -10 38 -12 40 C-11.27469778 28.69528951 -8.51964473 18.36994629 -4 8 C-3.34 8 -2.68 8 -2 8 C-2.061875 6.8553125 -2.061875 6.8553125 -2.125 5.6875 C-2 3 -2 3 0 0 Z " fill="#D1D1D1" transform="translate(489,620)"/>
<path d="M0 0 C0.99 0.33 1.98 0.66 3 1 C1.625 3.5 1.625 3.5 0 6 C-0.66 6 -1.32 6 -2 6 C-2.28101563 6.57105469 -2.56203125 7.14210938 -2.8515625 7.73046875 C-5.99562276 13.94373069 -9.53210136 19.96328756 -13 26 C-13.66 26 -14.32 26 -15 26 C-14.41512359 21.99251347 -13.15605425 19.14263232 -11.0625 15.6875 C-10.53785156 14.80449219 -10.01320313 13.92148437 -9.47265625 13.01171875 C-8.98667969 12.34785156 -8.50070312 11.68398438 -8 11 C-7.34 11 -6.68 11 -6 11 C-5.855625 10.38125 -5.71125 9.7625 -5.5625 9.125 C-5 7 -5 7 -4 5 C-3.34 5 -2.68 5 -2 5 C-2 4.01 -2 3.02 -2 2 C-1.34 2 -0.68 2 0 2 C0 1.34 0 0.68 0 0 Z " fill="#D8D8D8" transform="translate(721,362)"/>
<path d="M0 0 C0.33 0 0.66 0 1 0 C2.07522124 11.69303097 2.07522124 11.69303097 2 16.1875 C2 17.115625 2 18.04375 2 19 C2.33 19.33 2.66 19.66 3 20 C3.07258946 22.18639453 3.08373783 24.37500389 3.0625 26.5625 C3.05347656 27.76003906 3.04445313 28.95757813 3.03515625 30.19140625 C3.02355469 31.11824219 3.01195312 32.04507813 3 33 C1.515 33.495 1.515 33.495 0 34 C0 22.78 0 11.56 0 0 Z " fill="#D1D1D1" transform="translate(969,619)"/>
<path d="M0 0 C-3.10629156 1.68900014 -6.15205051 2.70626667 -9.5625 3.625 C-10.51253906 3.88539063 -11.46257813 4.14578125 -12.44140625 4.4140625 C-15 5 -15 5 -18 5 C-18 5.66 -18 6.32 -18 7 C-23.445 8.485 -23.445 8.485 -29 10 C-29 9.34 -29 8.68 -29 8 C-27.68 8 -26.36 8 -25 8 C-25 7.34 -25 6.68 -25 6 C-16.67432361 2.48547267 -9.14962538 -0.38123439 0 0 Z " fill="#D5D5D5" transform="translate(576,556)"/>
<path d="M0 0 C0.99 0.33 1.98 0.66 3 1 C2.0479279 2.00596297 1.08812654 3.00461563 0.125 4 C-0.40867187 4.556875 -0.94234375 5.11375 -1.4921875 5.6875 C-3 7 -3 7 -5 7 C-5.66 8.32 -6.32 9.64 -7 11 C-7.66 11 -8.32 11 -9 11 C-9.66 12.32 -10.32 13.64 -11 15 C-11.66 15 -12.32 15 -13 15 C-13.2475 15.639375 -13.495 16.27875 -13.75 16.9375 C-15 19 -15 19 -17.125 19.75 C-18.053125 19.87375 -18.053125 19.87375 -19 20 C-16.25826063 15.31619524 -13.11744814 12.15952358 -8.96484375 8.6796875 C-7.24626873 7.21052794 -5.68208657 5.69813397 -4.125 4.0625 C-2 2 -2 2 0 2 C0 1.34 0 0.68 0 0 Z " fill="#C7C7C7" transform="translate(423,481)"/>
<path d="M0 0 C1 2 1 2 0.42675781 4.05957031 C0.10545898 4.89069336 -0.21583984 5.72181641 -0.546875 6.578125 C-0.8975 7.49207031 -1.248125 8.40601563 -1.609375 9.34765625 C-1.98578125 10.30542969 -2.3621875 11.26320313 -2.75 12.25 C-3.1109375 13.19230469 -3.471875 14.13460938 -3.84375 15.10546875 C-5.68649621 19.86589646 -7.60834812 24.48916291 -10 29 C-11.18414294 25.44757118 -10.69535532 24.30169438 -9.5625 20.8125 C-9.27503906 19.91144531 -8.98757813 19.01039063 -8.69140625 18.08203125 C-8.46324219 17.39496094 -8.23507812 16.70789063 -8 16 C-7.34 16 -6.68 16 -6 16 C-5.8453125 14.7934375 -5.8453125 14.7934375 -5.6875 13.5625 C-4.85675427 9.25772668 -3.77016311 5.02309798 -2 1 C-1.34 0.67 -0.68 0.34 0 0 Z " fill="#D3D3D3" transform="translate(699,400)"/>
<path d="M0 0 C-0.66 0 -1.32 0 -2 0 C-2 0.66 -2 1.32 -2 2 C-3.4609375 3.2890625 -3.4609375 3.2890625 -5.375 4.625 C-6.31472656 5.29402344 -6.31472656 5.29402344 -7.2734375 5.9765625 C-9 7 -9 7 -11 7 C-11 7.66 -11 8.32 -11 9 C-12.4609375 10.2890625 -12.4609375 10.2890625 -14.375 11.625 C-15.00148438 12.07101562 -15.62796875 12.51703125 -16.2734375 12.9765625 C-18 14 -18 14 -20 14 C-20 14.66 -20 15.32 -20 16 C-20.66 16 -21.32 16 -22 16 C-20.84826645 13.53199953 -19.95216435 11.95216435 -18 10 C-17.01 10 -16.02 10 -15 10 C-14.7525 9.360625 -14.505 8.72125 -14.25 8.0625 C-12.67012061 5.455699 -11.83219689 5.70804922 -9 5 C-8.3162955 3.67532254 -7.65035814 2.34136367 -7 1 C-4.0449252 -1.00182486 -3.50436101 -1.16812034 0 0 Z " fill="#DADADA" transform="translate(448,465)"/>
<path d="M0 0 C0.66 0.66 1.32 1.32 2 2 C0.35 2 -1.3 2 -3 2 C-3 2.66 -3 3.32 -3 4 C-4.02480469 4.33773438 -5.04960938 4.67546875 -6.10546875 5.0234375 C-7.46617263 5.4738774 -8.82684822 5.92440276 -10.1875 6.375 C-10.86103516 6.59671875 -11.53457031 6.8184375 -12.22851562 7.046875 C-15.86969041 8.25467932 -19.45711217 9.52780972 -23 11 C-22.67 10.34 -22.34 9.68 -22 9 C-21.34 9 -20.68 9 -20 9 C-20 8.34 -20 7.68 -20 7 C-17.79513181 6.01233987 -15.58662689 5.03481484 -13.375 4.0625 C-12.75753906 3.78470703 -12.14007812 3.50691406 -11.50390625 3.22070312 C-7.69038243 1.55479535 -4.16831373 0.28725916 0 0 Z " fill="#CDCDCD" transform="translate(893,411)"/>
<path d="M0 0 C0.99 0.495 0.99 0.495 2 1 C1.01 1.495 1.01 1.495 0 2 C0 1.34 0 0.68 0 0 Z M-2 2 C-1.34 2 -0.68 2 0 2 C-1.37101408 6.64153369 -1.37101408 6.64153369 -4.20703125 8.2578125 C-5.06683594 8.54398437 -5.92664063 8.83015625 -6.8125 9.125 C-10.49974203 10.43767951 -13.72250428 11.81500285 -17 14 C-15.54308827 10.6005393 -13.8814072 8.33627611 -11 6 C-8.68234271 5.28072705 -6.34904126 4.6090107 -4 4 C-3.34 3.34 -2.68 2.68 -2 2 Z " fill="#F5F5F5" transform="translate(772,314)"/>
<path d="M0 0 C0.66 0.66 1.32 1.32 2 2 C0.54462432 2.83848804 -0.91440373 3.67063934 -2.375 4.5 C-3.59316406 5.19609375 -3.59316406 5.19609375 -4.8359375 5.90625 C-7 7 -7 7 -9 7 C-9 7.66 -9 8.32 -9 9 C-10.98 9.66 -12.96 10.32 -15 11 C-15 11.66 -15 12.32 -15 13 C-16.32 13.33 -17.64 13.66 -19 14 C-17.81715975 10.45147925 -17.0817952 10.15351463 -13.96484375 8.30078125 C-13.15595703 7.81416016 -12.34707031 7.32753906 -11.51367188 6.82617188 C-10.2384668 6.0769043 -10.2384668 6.0769043 -8.9375 5.3125 C-8.08349609 4.80138672 -7.22949219 4.29027344 -6.34960938 3.76367188 C-4.23761886 2.5011971 -2.12109864 1.24709082 0 0 Z " fill="#DADADA" transform="translate(467,450)"/>
<path d="M0 0 C0.66 0 1.32 0 2 0 C1.625 1.9375 1.625 1.9375 1 4 C0.01 4.495 0.01 4.495 -1 5 C-1.33 5.99 -1.66 6.98 -2 8 C-2.66 8 -3.32 8 -4 8 C-4.103125 8.53625 -4.20625 9.0725 -4.3125 9.625 C-5.18092697 12.62502044 -6.55620296 15.2379535 -8 18 C-8.66 18 -9.32 18 -10 18 C-10 18.99 -10 19.98 -10 21 C-10.66 21 -11.32 21 -12 21 C-11.67 19.68 -11.34 18.36 -11 17 C-10.34 17 -9.68 17 -9 17 C-8.87431641 15.69675781 -8.87431641 15.69675781 -8.74609375 14.3671875 C-7.8836763 10.47502079 -6.44282705 8.301639 -4.0625 5.125 C-3.35222656 4.15820312 -2.64195312 3.19140625 -1.91015625 2.1953125 C-1.27980469 1.47085938 -0.64945312 0.74640625 0 0 Z " fill="#D4D4D4" transform="translate(502,599)"/>
<path d="M0 0 C0.33 0 0.66 0 1 0 C1.3908344 6.06607565 0.03396206 10.75248442 -2 16.4375 C-2.28617187 17.26443359 -2.57234375 18.09136719 -2.8671875 18.94335938 C-3.56853905 20.96558968 -4.28294552 22.98328428 -5 25 C-5.66 25 -6.32 25 -7 25 C-6.34 21.37 -5.68 17.74 -5 14 C-4.34 14 -3.68 14 -3 14 C-2.814375 12.4840625 -2.814375 12.4840625 -2.625 10.9375 C-2.01914665 7.12062388 -1.12806088 3.68499888 0 0 Z " fill="#B4B4B4" transform="translate(353,581)"/>
<path d="M0 0 C0.33 0 0.66 0 1 0 C1.33 5.61 1.66 11.22 2 17 C4.29308963 18.14654482 5.79909656 18.19729117 8.3515625 18.31640625 C9.20234375 18.35830078 10.053125 18.40019531 10.9296875 18.44335938 C11.81914063 18.48267578 12.70859375 18.52199219 13.625 18.5625 C14.5221875 18.60568359 15.419375 18.64886719 16.34375 18.69335938 C18.56234283 18.79956861 20.7810488 18.90161194 23 19 C23 19.33 23 19.66 23 20 C19.35418313 20.02887512 15.70839537 20.04675585 12.0625 20.0625 C10.50112305 20.07506836 10.50112305 20.07506836 8.90820312 20.08789062 C7.91884766 20.09111328 6.92949219 20.09433594 5.91015625 20.09765625 C4.53549194 20.10551147 4.53549194 20.10551147 3.13305664 20.11352539 C1 20 1 20 0 19 C-0.08651611 17.58429877 -0.10704904 16.164405 -0.09765625 14.74609375 C-0.09443359 13.89208984 -0.09121094 13.03808594 -0.08789062 12.15820312 C-0.07951172 11.26037109 -0.07113281 10.36253906 -0.0625 9.4375 C-0.05798828 8.53580078 -0.05347656 7.63410156 -0.04882812 6.70507812 C-0.03700225 4.46998686 -0.0205222 2.23502563 0 0 Z " fill="#DBDBDB" transform="translate(819,496)"/>
<path d="M0 0 C1.97909398 -0.02686553 3.95828971 -0.04633375 5.9375 -0.0625 C7.03964844 -0.07410156 8.14179687 -0.08570313 9.27734375 -0.09765625 C12 0 12 0 13 1 C13.07319621 3.69654854 13.09242537 6.36691458 13.0625 9.0625 C13.05798828 9.82111328 13.05347656 10.57972656 13.04882812 11.36132812 C13.0370068 13.24091871 13.01907078 15.12046899 13 17 C12.34 16.67 11.68 16.34 11 16 C10.5859375 12.83984375 10.5859375 12.83984375 10.375 8.9375 C10.30023437 7.64714844 10.22546875 6.35679687 10.1484375 5.02734375 C10.09945312 4.02832031 10.05046875 3.02929688 10 2 C6.7 1.67 3.4 1.34 0 1 C0 0.67 0 0.34 0 0 Z " fill="#B9B9B9" transform="translate(959,514)"/>
<path d="M0 0 C0.66 0.33 1.32 0.66 2 1 C1.01 2.485 1.01 2.485 0 4 C-0.66 4 -1.32 4 -2 4 C-2 4.66 -2 5.32 -2 6 C-2.66 6 -3.32 6 -4 6 C-4.25523437 6.55171875 -4.51046875 7.1034375 -4.7734375 7.671875 C-6.19302074 10.36637058 -7.86132254 12.76778728 -9.625 15.25 C-10.25664062 16.14203125 -10.88828125 17.0340625 -11.5390625 17.953125 C-12.02117187 18.62859375 -12.50328125 19.3040625 -13 20 C-14 17 -14 17 -13 14 C-12.34 14 -11.68 14 -11 14 C-11 13.34 -11 12.68 -11 12 C-10.34 12 -9.68 12 -9 12 C-8.8453125 11.1028125 -8.8453125 11.1028125 -8.6875 10.1875 C-7.90175967 7.68741714 -7.03081147 6.62464918 -5 5 C-4.34 5 -3.68 5 -3 5 C-2.690625 4.360625 -2.38125 3.72125 -2.0625 3.0625 C-1 1 -1 1 0 0 Z " fill="#D7D7D7" transform="translate(402,503)"/>
<path d="M0 0 C8.47990477 1.55464921 16.77740741 4.18493828 24 9 C22 10 22 10 20.0390625 9.36328125 C19.24242187 9.01652344 18.44578125 8.66976562 17.625 8.3125 C11.8483715 5.88868073 5.9585089 3.92474171 0 2 C0 1.34 0 0.68 0 0 Z " fill="#C3C3C3" transform="translate(1047,733)"/>
<path d="M0 0 C0.33 0.66 0.66 1.32 1 2 C-5.07440906 5.15458442 -11.04215376 7.39458485 -18 7 C-18.66 6.34 -19.32 5.68 -20 5 C-19.05898437 4.80664062 -18.11796875 4.61328125 -17.1484375 4.4140625 C-15.90320312 4.15367187 -14.65796875 3.89328125 -13.375 3.625 C-12.14523437 3.36976563 -10.91546875 3.11453125 -9.6484375 2.8515625 C-6.34179804 2.07977727 -3.19858287 1.13180625 0 0 Z " fill="#DDDDDD" transform="translate(1062,902)"/>
<path d="M0 0 C3.88113294 -0.35283027 6.45078767 0.50562038 9.953125 2.1328125 C13.84431532 3.78137023 17.93944895 4.84801268 22 6 C22 6.66 22 7.32 22 8 C18.37 7.34 14.74 6.68 11 6 C11 5.34 11 4.68 11 4 C10.113125 3.87625 9.22625 3.7525 8.3125 3.625 C5.29612498 3.05587264 2.79673946 2.23385564 0 1 C0 0.67 0 0.34 0 0 Z " fill="#CCCCCC" transform="translate(988,900)"/>
<path d="M0 0 C1.25541557 3.76624671 0.37061958 5.37188934 -1 9 C-1.66 9 -2.32 9 -3 9 C-3.12117188 9.63808594 -3.24234375 10.27617188 -3.3671875 10.93359375 C-3.53476563 11.75988281 -3.70234375 12.58617187 -3.875 13.4375 C-4.03742188 14.26121094 -4.19984375 15.08492187 -4.3671875 15.93359375 C-4.57601563 16.61550781 -4.78484375 17.29742188 -5 18 C-5.66 18.33 -6.32 18.66 -7 19 C-4.37175793 4.37175793 -4.37175793 4.37175793 0 0 Z " fill="#B8B8B8" transform="translate(1115,846)"/>
<path d="M0 0 C-3.03790502 1.73293889 -5.46125791 2.31075365 -8.9375 2.5625 C-12.35995823 2.84559846 -15.64776968 3.21781292 -19 4 C-19 3.01 -19 2.02 -19 1 C-12.62641289 0.03794912 -6.44070471 -0.10655578 0 0 Z " fill="#D7D7D7" transform="translate(570,418)"/>
<path d="M0 0 C0.99 0.33 1.98 0.66 3 1 C2.67 1.66 2.34 2.32 2 3 C1.34 3 0.68 3 0 3 C0 3.66 0 4.32 0 5 C-1.95927063 6.7143618 -3.95880212 8.38405168 -6 10 C-6.99 9.34 -7.98 8.68 -9 8 C-8.34 8 -7.68 8 -7 8 C-6.87625 7.360625 -6.7525 6.72125 -6.625 6.0625 C-6.41875 5.381875 -6.2125 4.70125 -6 4 C-5.34 3.67 -4.68 3.34 -4 3 C-3.01 3.33 -2.02 3.66 -1 4 C-0.67 2.68 -0.34 1.36 0 0 Z " fill="#E1E1E1" transform="translate(1092,882)"/>
<path d="M0 0 C0 0.66 0 1.32 0 2 C-0.58007812 2.24234375 -1.16015625 2.4846875 -1.7578125 2.734375 C-6.53486653 4.78393614 -10.77710389 6.96817715 -15 10 C-15 9.01 -15 8.02 -15 7 C-14.360625 6.896875 -13.72125 6.79375 -13.0625 6.6875 C-12.381875 6.460625 -11.70125 6.23375 -11 6 C-10.67 5.01 -10.34 4.02 -10 3 C-6.30414334 0.78248601 -4.36991627 0 0 0 Z " fill="#DCDCDC" transform="translate(546,566)"/>
<path d="M0 0 C0.99 0.33 1.98 0.66 3 1 C2.01 2.485 2.01 2.485 1 4 C0.34 4 -0.32 4 -1 4 C-1 4.99 -1 5.98 -1 7 C-1.66 7 -2.32 7 -3 7 C-3 7.99 -3 8.98 -3 10 C-3.66 10 -4.32 10 -5 10 C-5 10.66 -5 11.32 -5 12 C-5.99 12.33 -6.98 12.66 -8 13 C-7.67 11.68 -7.34 10.36 -7 9 C-6.34 9 -5.68 9 -5 9 C-4.731875 8.2575 -4.46375 7.515 -4.1875 6.75 C-3.05770579 4.13363446 -1.79106798 2.19812889 0 0 Z " fill="#D6D6D6" transform="translate(1103,869)"/>
<path d="M0 0 C-0.33 0.66 -0.66 1.32 -1 2 C-4.96 2 -8.92 2 -13 2 C-13 2.66 -13 3.32 -13 4 C-14.32 3.67 -15.64 3.34 -17 3 C-16.67 2.34 -16.34 1.68 -16 1 C-10.74469407 -0.34751434 -5.38420602 -0.09576651 0 0 Z " fill="#D5D5D5" transform="translate(595,553)"/>
<path d="M0 0 C0.66 0.33 1.32 0.66 2 1 C-1.3 4.63 -4.6 8.26 -8 12 C-8.33 11.01 -8.66 10.02 -9 9 C-8.34 8.01 -7.68 7.02 -7 6 C-6.34 6 -5.68 6 -5 6 C-4.731875 5.38125 -4.46375 4.7625 -4.1875 4.125 C-3 2 -3 2 0 0 Z " fill="#DADADA" transform="translate(971,753)"/>
<path d="M0 0 C-3 2 -3 2 -6 2 C-6 2.66 -6 3.32 -6 4 C-7.32 4.33 -8.64 4.66 -10 5 C-10 5.66 -10 6.32 -10 7 C-11.65 7.66 -13.3 8.32 -15 9 C-14.25 7.0625 -14.25 7.0625 -13 5 C-10.875 4.25 -10.875 4.25 -9 4 C-9 3.34 -9 2.68 -9 2 C-3.375 -1.125 -3.375 -1.125 0 0 Z " fill="#D6D6D6" transform="translate(988,744)"/>
<path d="M0 0 C1.39852912 4.19558737 -0.22736864 6.04566851 -2 10 C-2.69140522 12.77888613 -2.69140522 12.77888613 -3 15 C-3.99 15.33 -4.98 15.66 -6 16 C-5.125 10.25 -5.125 10.25 -4 8 C-3.34 8 -2.68 8 -2 8 C-2.04125 7.236875 -2.0825 6.47375 -2.125 5.6875 C-2 3 -2 3 0 0 Z " fill="#C8C8C8" transform="translate(489,620)"/>
<path d="M0 0 C0.66 0.33 1.32 0.66 2 1 C1.67 1.66 1.34 2.32 1 3 C0.34 3 -0.32 3 -1 3 C-1.66 4.65 -2.32 6.3 -3 8 C-3.66 8 -4.32 8 -5 8 C-5 8.66 -5 9.32 -5 10 C-6.98 10.99 -6.98 10.99 -9 12 C-9 11.01 -9 10.02 -9 9 C-8.34 9 -7.68 9 -7 9 C-6.731875 8.401875 -6.46375 7.80375 -6.1875 7.1875 C-5.00082594 5.00152146 -3.90400887 3.58667406 -2 2 C-1.34 2 -0.68 2 0 2 C0 1.34 0 0.68 0 0 Z " fill="#DDDDDD" transform="translate(513,587)"/>
<path d="M0 0 C0.33 0.66 0.66 1.32 1 2 C0.34 2 -0.32 2 -1 2 C-1 2.66 -1 3.32 -1 4 C-2.093125 4.598125 -3.18625 5.19625 -4.3125 5.8125 C-6.91074129 7.29044697 -9.04349493 8.69822933 -11 11 C-11 8 -11 8 -9.35546875 6.2109375 C-8.28232422 5.30214844 -8.28232422 5.30214844 -7.1875 4.375 C-6.47980469 3.76398437 -5.77210938 3.15296875 -5.04296875 2.5234375 C-3 1 -3 1 0 0 Z " fill="#D6D6D6" transform="translate(529,575)"/>
<path d="M0 0 C0.66 0 1.32 0 2 0 C1.34215037 3.29680965 0.10579427 5.84117922 -1.5625 8.75 C-2.01753906 9.54921875 -2.47257813 10.3484375 -2.94140625 11.171875 C-3.29074219 11.77515625 -3.64007812 12.3784375 -4 13 C-4.66 13 -5.32 13 -6 13 C-5.53198701 8.00786149 -3.08284263 3.87036007 0 0 Z " fill="#CBCBCB" transform="translate(712,375)"/>
<path d="M0 0 C0.33 0 0.66 0 1 0 C1 4.95 1 9.9 1 15 C0.34 14.67 -0.32 14.34 -1 14 C-1.484375 11.34765625 -1.484375 11.34765625 -1.75 8.0625 C-1.84796875 6.98097656 -1.9459375 5.89945313 -2.046875 4.78515625 C-2 2 -2 2 0 0 Z " fill="#BCBCBC" transform="translate(971,556)"/>
<path d="M0 0 C-5.36000789 2.25684543 -9.1977825 3.36263859 -15 3 C-15 2.34 -15 1.68 -15 1 C-13.0641649 0.63684334 -11.12624752 0.28477269 -9.1875 -0.0625 C-8.10855469 -0.25972656 -7.02960937 -0.45695312 -5.91796875 -0.66015625 C-3 -1 -3 -1 0 0 Z " fill="#CCCCCC" transform="translate(872,271)"/>
<path d="M0 0 C0.99 0.33 1.98 0.66 3 1 C2.0479279 2.00596297 1.08812654 3.00461563 0.125 4 C-0.40867187 4.556875 -0.94234375 5.11375 -1.4921875 5.6875 C-3 7 -3 7 -5 7 C-5.33 7.99 -5.66 8.98 -6 10 C-6.66 10 -7.32 10 -8 10 C-6.55922954 6.63820226 -4.75249979 4.40843732 -2 2 C-1.34 2 -0.68 2 0 2 C0 1.34 0 0.68 0 0 Z " fill="#CFCFCF" transform="translate(423,481)"/>
<path d="M0 0 C0.99 0 1.98 0 3 0 C3 0.66 3 1.32 3 2 C0.37575342 3.74949772 -1.55727216 4.65389981 -4.5 5.625 C-5.2734375 5.88539063 -6.046875 6.14578125 -6.84375 6.4140625 C-9 7 -9 7 -12 7 C-12 6.34 -12 5.68 -12 5 C-10.56445975 4.49440092 -9.1264798 3.9957251 -7.6875 3.5 C-6.88699219 3.2215625 -6.08648437 2.943125 -5.26171875 2.65625 C-3 2 -3 2 0 2 C0 1.34 0 0.68 0 0 Z " fill="#D3D3D3" transform="translate(509,430)"/>
<path d="M0 0 C0.66 0.33 1.32 0.66 2 1 C0.89718873 2.27200971 -0.20730769 3.54255853 -1.3125 4.8125 C-1.92738281 5.52019531 -2.54226563 6.22789062 -3.17578125 6.95703125 C-4.73334335 8.70136739 -6.32658875 10.36778041 -8 12 C-8.66 11.67 -9.32 11.34 -10 11 C-7.22169429 7.3984926 -4.2594334 4.17134061 -1 1 C-0.67 0.67 -0.34 0.34 0 0 Z " fill="#BEBEBE" transform="translate(746,334)"/>
<path d="M0 0 C-2.88628401 1.57554035 -5.53342384 2.46276373 -8.75 3.125 C-9.94882812 3.37636719 -9.94882812 3.37636719 -11.171875 3.6328125 C-11.77515625 3.75398437 -12.3784375 3.87515625 -13 4 C-12.67 3.01 -12.34 2.02 -12 1 C-7.9472484 0.01751476 -4.16138263 -0.08159574 0 0 Z " fill="#CACACA" transform="translate(576,556)"/>
<path d="M0 0 C0.66 0.66 1.32 1.32 2 2 C1.67 2.66 1.34 3.32 1 4 C0.34 4 -0.32 4 -1 4 C-1.66 5.32 -2.32 6.64 -3 8 C-3.66 7.67 -4.32 7.34 -5 7 C-5 5.35 -5 3.7 -5 2 C-3.68 2 -2.36 2 -1 2 C-0.67 1.34 -0.34 0.68 0 0 Z " fill="#F3F3F3" transform="translate(1097,874)"/>
<path d="M0 0 C2 1 2 1 2.81640625 3.14453125 C3.06261719 4.02496094 3.30882812 4.90539062 3.5625 5.8125 C3.81128906 6.68519531 4.06007813 7.55789063 4.31640625 8.45703125 C4.90134027 10.63298581 5.46434428 12.81146376 6 15 C5.67 14.34 5.34 13.68 5 13 C4.34 13 3.68 13 3 13 C2.49689942 11.2092015 1.99761372 9.41733089 1.5 7.625 C1.2215625 6.62726562 0.943125 5.62953125 0.65625 4.6015625 C0 2 0 2 0 0 Z " fill="#CCCCCC" transform="translate(944,845)"/>
<path d="M0 0 C0.33 0 0.66 0 1 0 C1.16789126 2.43742131 1.33436133 4.87492546 1.5 7.3125 C1.54769531 8.00279297 1.59539063 8.69308594 1.64453125 9.40429688 C1.83879489 12.27662359 2 15.12013788 2 18 C1.34 18.33 0.68 18.66 0 19 C0 12.73 0 6.46 0 0 Z " fill="#E4E4E4" transform="translate(969,539)"/>
<path d="M0 0 C0.66 0.33 1.32 0.66 2 1 C-2.625 5.875 -2.625 5.875 -6 7 C-6 7.66 -6 8.32 -6 9 C-6.66 9 -7.32 9 -8 9 C-6.84826645 6.53199953 -5.95216435 4.95216435 -4 3 C-3.01 3 -2.02 3 -1 3 C-0.67 2.01 -0.34 1.02 0 0 Z " fill="#CCCCCC" transform="translate(434,472)"/>
<path d="M0 0 C-1.24460783 0.67667998 -2.49596896 1.34094719 -3.75 2 C-4.44609375 2.37125 -5.1421875 2.7425 -5.859375 3.125 C-8 4 -8 4 -12 4 C-12 3.34 -12 2.68 -12 2 C-10.75579353 1.4654744 -9.50429064 0.94791389 -8.25 0.4375 C-7.55390625 0.14746094 -6.8578125 -0.14257812 -6.140625 -0.44140625 C-3.69987216 -1.07831803 -2.3596345 -0.80248831 0 0 Z " fill="#D0D0D0" transform="translate(836,281)"/>
<path d="M0 0 C0.99 0 1.98 0 3 0 C3 2.31 3 4.62 3 7 C2.01 7.33 1.02 7.66 0 8 C0 5.36 0 2.72 0 0 Z " fill="#F7F7F7" transform="translate(304,874)"/>
<path d="M0 0 C0.33 0.66 0.66 1.32 1 2 C0.00390625 4.1640625 0.00390625 4.1640625 -1.4375 6.625 C-1.91058594 7.44226563 -2.38367188 8.25953125 -2.87109375 9.1015625 C-3.24363281 9.72804688 -3.61617188 10.35453125 -4 11 C-4.66 10.67 -5.32 10.34 -6 10 C-5.01 7.69 -4.02 5.38 -3 3 C-2.34 3 -1.68 3 -1 3 C-0.67 2.01 -0.34 1.02 0 0 Z " fill="#BABABA" transform="translate(367,554)"/>
<path d="M0 0 C0.66 0.33 1.32 0.66 2 1 C-0.17424117 3.50037734 -1.73045798 4.43628586 -5 5 C-5 5.66 -5 6.32 -5 7 C-6.32 6.67 -7.64 6.34 -9 6 C-4.25 3 -4.25 3 -2 3 C-2 2.34 -2 1.68 -2 1 C-1.34 0.67 -0.68 0.34 0 0 Z " fill="#DEDEDE" transform="translate(869,420)"/>
<path d="M0 0 C0 0.66 0 1.32 0 2 C-0.66 2 -1.32 2 -2 2 C-2 2.66 -2 3.32 -2 4 C-4.31 5.32 -6.62 6.64 -9 8 C-7.13554727 3.64961029 -5.02378599 0 0 0 Z " fill="#DBDBDB" transform="translate(764,320)"/>
<path d="M0 0 C0.33 0 0.66 0 1 0 C0.67 2.97 0.34 5.94 0 9 C-0.99 8.67 -1.98 8.34 -3 8 C-2.01 5.36 -1.02 2.72 0 0 Z " fill="#BABABA" transform="translate(687,429)"/>
<path d="M0 0 C0.66 0 1.32 0 2 0 C2 0.66 2 1.32 2 2 C2.66 2 3.32 2 4 2 C4 2.66 4 3.32 4 4 C4.66 4 5.32 4 6 4 C6.33 4.99 6.66 5.98 7 7 C6.01 7 5.02 7 4 7 C3.67 6.01 3.34 5.02 3 4 C2.34 4 1.68 4 1 4 C0.67 2.68 0.34 1.36 0 0 Z " fill="#A0A0A0" transform="translate(962,878)"/>
<path d="M0 0 C0.66 0 1.32 0 2 0 C1.625 1.9375 1.625 1.9375 1 4 C0.01 4.495 0.01 4.495 -1 5 C-1.33 5.99 -1.66 6.98 -2 8 C-2.66 8 -3.32 8 -4 8 C-3.40312566 4.65750371 -2.26396123 2.53563658 0 0 Z " fill="#CDCDCD" transform="translate(502,599)"/>
<path d="M0 0 C1 3 1 3 0.22265625 4.82421875 C-0.8515625 6.54947917 -1.92578125 8.27473958 -3 10 C-3.66 10 -4.32 10 -5 10 C-3.66511872 6.40608886 -2.03977277 3.24509304 0 0 Z " fill="#CCCCCC" transform="translate(705,388)"/>
<path d="M0 0 C0 0.66 0 1.32 0 2 C-1.96147874 3.38938077 -3.96166576 4.7260411 -6 6 C-6.66 5.67 -7.32 5.34 -8 5 C-3.375 0 -3.375 0 0 0 Z " fill="#DADADA" transform="translate(772,314)"/>
<path d="M0 0 C0.66 0.33 1.32 0.66 2 1 C0.35 2.65 -1.3 4.3 -3 6 C-3.99 5.67 -4.98 5.34 -6 5 C-4.06745228 2.9754262 -2.36841312 1.57894208 0 0 Z " fill="#CBCBCB" transform="translate(777,308)"/>
<path d="M0 0 C0.66 0.66 1.32 1.32 2 2 C-1.96 3.98 -1.96 3.98 -6 6 C-3.75 1.5 -3.75 1.5 0 0 Z " fill="#E3E3E3" transform="translate(467,450)"/>
<path d="M0 0 C0.98120464 3.05263664 0.98120464 4.94736336 0 8 C-0.66 8 -1.32 8 -2 8 C-2 5.69 -2 3.38 -2 1 C-1.34 0.67 -0.68 0.34 0 0 Z " fill="#F6F6F6" transform="translate(306,285)"/>
<path d="M0 0 C1.98 0.99 1.98 0.99 4 2 C4 2.99 4 3.98 4 5 C4.66 5 5.32 5 6 5 C5.67 6.32 5.34 7.64 5 9 C5 8.01 5 7.02 5 6 C4.34 6 3.68 6 3 6 C3 5.34 3 4.68 3 4 C2.34 4 1.68 4 1 4 C0.67 2.68 0.34 1.36 0 0 Z " fill="#D3D3D3" transform="translate(956,871)"/>
<path d="M0 0 C1 2 1 2 0.0625 5.125 C-0.288125 6.07375 -0.63875 7.0225 -1 8 C-1.66 8 -2.32 8 -3 8 C-2.74438677 5.6568787 -2.40729228 3.32156597 -2 1 C-1.34 0.67 -0.68 0.34 0 0 Z " fill="#BFBFBF" transform="translate(349,598)"/>
</svg>
